<?xml version="1.0" encoding="utf-8"?>
<!-- Generator: Adobe Illustrator 18.1.1, SVG Export Plug-In . SVG Version: 6.00 Build 0)  -->
<svg version="1.1" id="Layer_1" xmlns="http://www.w3.org/2000/svg" xmlns:xlink="http://www.w3.org/1999/xlink" x="0px" y="0px"
	 viewBox="7.1 70.9 226.8 226.8" enable-background="new 7.1 70.9 226.8 226.8" xml:space="preserve">
<g>
	<g>
		
			<linearGradient id="SVGID_1_" gradientUnits="userSpaceOnUse" x1="35.5333" y1="3078.9485" x2="222.7464" y2="3078.9485" gradientTransform="matrix(1 0 0 -1 1.839762e-007 3261.3159)">
			<stop  offset="0" style="stop-color:#ADBE14;stop-opacity:0.7"/>
			<stop  offset="1" style="stop-color:#ADC014;stop-opacity:0.2"/>
		</linearGradient>
		<path fill="url(#SVGID_1_)" d="M129.1,276c-51.6,0-93.6-42-93.6-93.6c0-51.6,42-93.6,93.6-93.6c51.6,0,93.6,42,93.6,93.6
			C222.7,234,180.8,276,129.1,276z M129.1,89.2C77.8,89.2,36,131,36,182.4s41.8,93.1,93.1,93.1c51.4,0,93.1-41.8,93.1-93.1
			S180.5,89.2,129.1,89.2z"/>
		<path fill="#ADBE14" d="M48.1,285c-16.3,0-29.5-13.2-29.5-29.5S31.9,226,48.1,226s29.5,13.2,29.5,29.5S64.4,285,48.1,285z
			 M48.1,226.5c-16,0-29,13-29,29s13,29,29,29s29-13,29-29S64.1,226.5,48.1,226.5z"/>
		<path fill="#E3E3E3" d="M39.7,233.8c-9.4,0-17.1-7.7-17.1-17.1c0-9.4,7.7-17.1,17.1-17.1s17.1,7.7,17.1,17.1
			C56.8,226.1,49.1,233.8,39.7,233.8z M39.7,200c-9.2,0-16.6,7.5-16.6,16.6c0,9.2,7.5,16.6,16.6,16.6s16.6-7.5,16.6-16.6
			C56.3,207.5,48.9,200,39.7,200z"/>
		<circle fill="#ECECEC" cx="57" cy="249.3" r="17.2"/>
		
			<linearGradient id="SVGID_2_" gradientUnits="userSpaceOnUse" x1="16.0836" y1="3001.8904" x2="24.1038" y2="3001.8904" gradientTransform="matrix(1 0 0 -1 1.839762e-007 3261.3159)">
			<stop  offset="0" style="stop-color:#ADBE14"/>
			<stop  offset="1" style="stop-color:#C4BE14"/>
		</linearGradient>
		<circle fill="url(#SVGID_2_)" cx="20.1" cy="259.4" r="4"/>
		
			<linearGradient id="SVGID_3_" gradientUnits="userSpaceOnUse" x1="50.8099" y1="3035.1919" x2="56.4346" y2="3035.1919" gradientTransform="matrix(1 0 0 -1 1.839762e-007 3261.3159)">
			<stop  offset="0" style="stop-color:#ADBE14"/>
			<stop  offset="1" style="stop-color:#C4BE14"/>
		</linearGradient>
		<circle fill="url(#SVGID_3_)" cx="53.6" cy="226.1" r="2.8"/>
		<circle fill="#F5F5F5" cx="201.2" cy="103.5" r="13.8"/>
		<path fill="#E3E3E3" d="M203.7,118.3c-9.6,0-17.4-7.8-17.4-17.4c0-9.6,7.8-17.4,17.4-17.4c9.6,0,17.4,7.8,17.4,17.4
			C221.1,110.5,213.3,118.3,203.7,118.3z M203.7,84c-9.3,0-16.9,7.6-16.9,16.9s7.6,16.9,16.9,16.9c9.3,0,16.9-7.6,16.9-16.9
			S213,84,203.7,84z"/>
		
			<linearGradient id="SVGID_4_" gradientUnits="userSpaceOnUse" x1="190.3152" y1="3147.6892" x2="197.0648" y2="3147.6892" gradientTransform="matrix(1 0 0 -1 1.839762e-007 3261.3159)">
			<stop  offset="0" style="stop-color:#ADBE14"/>
			<stop  offset="1" style="stop-color:#C4BE14"/>
		</linearGradient>
		<circle fill="url(#SVGID_4_)" cx="193.7" cy="113.6" r="3.4"/>
	</g>
	<g opacity="0.39">
		
			<image overflow="visible" opacity="0.4" width="79" height="79" xlink:href="99C20AEA.png"  transform="matrix(1 0 0 1 36.9921 224.4921)">
		</image>
		<g>
			<circle fill="#FFFFFF" cx="75.6" cy="263.4" r="21.5"/>
		</g>
	</g>
	<g>
		
			<linearGradient id="SVGID_5_" gradientUnits="userSpaceOnUse" x1="-2255.2043" y1="198.0388" x2="-2252.1738" y2="198.0388" gradientTransform="matrix(-0.6962 0.7178 0.7178 0.6962 -1656.2269 1649.8191)">
			<stop  offset="0" style="stop-color:#ADBE14"/>
			<stop  offset="1" style="stop-color:#C4BE14"/>
		</linearGradient>
		<circle opacity="0.7" fill="url(#SVGID_5_)" cx="55" cy="170" r="1.5"/>
		<g>
			<g>
				<g>
					
						<linearGradient id="SVGID_6_" gradientUnits="userSpaceOnUse" x1="-2266.3237" y1="198.0484" x2="-2241.0544" y2="198.0484" gradientTransform="matrix(-0.6962 0.7178 0.7178 0.6962 -1656.2269 1649.8191)">
						<stop  offset="0" style="stop-color:#ADBE14"/>
						<stop  offset="1" style="stop-color:#C4BE14"/>
					</linearGradient>
					<path fill="url(#SVGID_6_)" d="M48.4,179.7c-0.4,1.3,0.2,1.7,1.2,0.7c1-0.9,1.9-0.6,1.9,0.8s0.7,1.5,1.4,0.3s1.6-1.1,2.1,0.2
						c0.5,1.3,1.1,1.3,1.4-0.1c0.3-1.3,1.2-1.5,2.1-0.4c0.8,1.1,1.4,0.9,1.3-0.5c-0.1-1.4,0.7-1.8,1.8-1c1.1,0.8,1.6,0.4,1.1-0.8
						c-0.5-1.3,0.2-2,1.5-1.5s1.7-0.1,0.8-1.1c-0.8-1.1-0.4-1.9,1-1.9c1.4,0.1,1.6-0.5,0.4-1.3s-1-1.7,0.4-2.1s1.3-1,0-1.4
						c-1.3-0.4-1.4-1.4-0.3-2.1c1.2-0.7,1-1.3-0.4-1.3c-1.4,0-1.8-0.9-0.9-1.9c0.9-1,0.6-1.6-0.8-1.2c-1.3,0.4-1.9-0.3-1.4-1.6
						c0.5-1.3,0.1-1.7-1.1-0.9c-1.1,0.8-1.9,0.3-1.8-1.1c0.2-1.4-0.4-1.6-1.3-0.5c-0.9,1.1-1.8,0.8-2-0.5c-0.3-1.4-0.9-1.4-1.4-0.1
						c-0.5,1.3-1.5,1.3-2.1,0.1c-0.6-1.2-1.3-1.1-1.4,0.3c-0.1,1.4-1,1.7-2,0.7c-1-1-1.5-0.7-1.2,0.7c0.3,1.3-0.5,1.9-1.7,1.3
						c-1.2-0.6-1.7-0.2-1,1c0.7,1.2,0.1,2-1.2,1.7c-1.4-0.3-1.6,0.3-0.6,1.2c1,0.9,0.7,1.8-0.7,2c-1.4,0.2-1.5,0.8-0.2,1.4
						s1.2,1.5,0,2.1c-1.3,0.5-1.2,1.2,0.2,1.4c1.4,0.2,1.6,1.1,0.6,2c-1,0.9-0.8,1.5,0.6,1.3c1.4-0.2,1.9,0.6,1.1,1.8
						c-0.7,1.2-0.3,1.6,0.9,1S48.8,178.3,48.4,179.7z M48.7,176.5c-3.6-3.5-3.7-9.3-0.2-12.9c3.5-3.6,9.3-3.7,12.9-0.2
						c3.6,3.5,3.7,9.3,0.2,12.9C58.1,179.9,52.3,180,48.7,176.5z"/>
				</g>
			</g>
		</g>
		<g>
			
				<linearGradient id="SVGID_7_" gradientUnits="userSpaceOnUse" x1="-2261.3738" y1="198.0388" x2="-2246.0044" y2="198.0388" gradientTransform="matrix(-0.6962 0.7178 0.7178 0.6962 -1656.2269 1649.8191)">
				<stop  offset="0" style="stop-color:#ADBE14"/>
				<stop  offset="1" style="stop-color:#C4BE14"/>
			</linearGradient>
			<path fill="url(#SVGID_7_)" d="M49.7,175.5c3,3,7.9,2.9,10.9-0.2c3-3,2.9-7.9-0.2-10.9c-3-3-7.9-2.9-10.9,0.2
				C46.6,167.7,46.6,172.6,49.7,175.5z M51.2,173.9c-2.2-2.1-2.2-5.6-0.1-7.8c2.1-2.2,5.6-2.2,7.8-0.1c2.2,2.1,2.2,5.6,0.1,7.8
				C56.9,176,53.4,176.1,51.2,173.9z"/>
		</g>
		
			<linearGradient id="SVGID_8_" gradientUnits="userSpaceOnUse" x1="-2256.8416" y1="198.0388" x2="-2250.5366" y2="198.0388" gradientTransform="matrix(-0.6962 0.7178 0.7178 0.6962 -1656.2269 1649.8191)">
			<stop  offset="0" style="stop-color:#ADBE14"/>
			<stop  offset="1" style="stop-color:#C4BE14"/>
		</linearGradient>
		<circle opacity="0.21" fill="url(#SVGID_8_)" cx="55" cy="170" r="3.2"/>
	</g>
	<g>
		
			<linearGradient id="SVGID_9_" gradientUnits="userSpaceOnUse" x1="-2242.665" y1="226.2907" x2="-2238.2336" y2="226.2907" gradientTransform="matrix(-0.6962 0.7178 0.7178 0.6962 -1656.2269 1649.8191)">
			<stop  offset="0" style="stop-color:#ADBE14"/>
			<stop  offset="1" style="stop-color:#C4BE14"/>
		</linearGradient>
		<circle opacity="0.7" fill="url(#SVGID_9_)" cx="66.1" cy="199.2" r="2.2"/>
		<g>
			<g>
				<g>
					
						<linearGradient id="SVGID_10_" gradientUnits="userSpaceOnUse" x1="-2258.9241" y1="226.3046" x2="-2221.9746" y2="226.3046" gradientTransform="matrix(-0.6962 0.7178 0.7178 0.6962 -1656.2269 1649.8191)">
						<stop  offset="0" style="stop-color:#ADBE14"/>
						<stop  offset="1" style="stop-color:#C4BE14"/>
					</linearGradient>
					<path fill="url(#SVGID_10_)" d="M56.4,213.3c-0.5,1.9,0.3,2.4,1.7,1.1c1.5-1.4,2.8-0.8,2.8,1.2c0.1,2,1,2.2,2,0.5
						c1-1.7,2.4-1.6,3.1,0.3c0.7,1.9,1.6,1.8,2-0.1s1.8-2.2,3-0.6c1.2,1.6,2.1,1.3,1.9-0.7s1.1-2.7,2.7-1.5c1.6,1.2,2.3,0.6,1.6-1.2
						s0.2-2.9,2.1-2.2s2.4-0.1,1.2-1.7s-0.6-2.8,1.4-2.7c2,0.1,2.3-0.8,0.6-1.9s-1.4-2.5,0.5-3c1.9-0.5,2-1.4,0-2
						c-1.9-0.6-2.1-2-0.4-3c1.7-1.1,1.5-2-0.6-2c-2,0-2.6-1.3-1.3-2.8c1.3-1.5,0.8-2.3-1.1-1.7c-1.9,0.6-2.8-0.5-2-2.3
						c0.8-1.8,0.1-2.4-1.6-1.3s-2.8,0.4-2.6-1.6c0.2-2-0.6-2.4-1.9-0.8c-1.3,1.6-2.6,1.2-3-0.7c-0.4-2-1.3-2.1-2-0.2
						c-0.7,1.9-2.1,1.9-3.1,0.2c-0.9-1.8-1.8-1.6-2,0.4s-1.5,2.5-2.9,1.1s-2.2-1-1.8,1c0.4,2-0.7,2.8-2.4,1.9
						c-1.8-0.9-2.4-0.3-1.4,1.5c1,1.7,0.2,2.9-1.8,2.5c-2-0.4-2.4,0.4-0.9,1.8c1.5,1.4,1,2.7-1,2.9s-2.2,1.1-0.3,2s1.8,2.3-0.1,3.1
						s-1.7,1.7,0.3,2c2,0.3,2.4,1.6,0.8,3c-1.5,1.3-1.1,2.1,0.8,1.9c2-0.3,2.7,0.9,1.7,2.6c-1.1,1.7-0.5,2.4,1.4,1.5
						C55.9,210.5,57,211.4,56.4,213.3z M56.8,208.7c-5.3-5.1-5.4-13.5-0.3-18.8c5.1-5.3,13.5-5.4,18.8-0.3
						c5.3,5.1,5.4,13.5,0.3,18.8C70.5,213.7,62.1,213.8,56.8,208.7z"/>
				</g>
			</g>
		</g>
		<g>
			
				<linearGradient id="SVGID_11_" gradientUnits="userSpaceOnUse" x1="-2251.686" y1="226.2907" x2="-2229.2126" y2="226.2907" gradientTransform="matrix(-0.6962 0.7178 0.7178 0.6962 -1656.2269 1649.8191)">
				<stop  offset="0" style="stop-color:#ADBE14"/>
				<stop  offset="1" style="stop-color:#C4BE14"/>
			</linearGradient>
			<path fill="url(#SVGID_11_)" d="M58.3,207.2c4.5,4.3,11.6,4.2,15.9-0.2c4.3-4.5,4.2-11.6-0.2-15.9c-4.5-4.3-11.6-4.2-15.9,0.2
				C53.7,195.8,53.8,202.9,58.3,207.2z M60.5,204.9c-3.2-3.1-3.3-8.2-0.2-11.4c3.1-3.2,8.2-3.3,11.4-0.2c3.2,3.1,3.3,8.2,0.2,11.4
				C68.8,207.9,63.7,208,60.5,204.9z"/>
		</g>
		
			<linearGradient id="SVGID_12_" gradientUnits="userSpaceOnUse" x1="-2245.0588" y1="226.2907" x2="-2235.8398" y2="226.2907" gradientTransform="matrix(-0.6962 0.7178 0.7178 0.6962 -1656.2269 1649.8191)">
			<stop  offset="0" style="stop-color:#ADBE14"/>
			<stop  offset="1" style="stop-color:#C4BE14"/>
		</linearGradient>
		<circle opacity="0.21" fill="url(#SVGID_12_)" cx="66.1" cy="199.2" r="4.6"/>
	</g>
	<g>
		<g>
			<g>
				
					<linearGradient id="SVGID_13_" gradientUnits="userSpaceOnUse" x1="191.3896" y1="141.7157" x2="239.263" y2="141.7157" gradientTransform="matrix(-1 0 0 1 388.7079 0)">
					<stop  offset="0" style="stop-color:#ADBE14"/>
					<stop  offset="1" style="stop-color:#C4BE14"/>
				</linearGradient>
				<path fill="url(#SVGID_13_)" d="M153.1,143.4c-0.8,0.3-2.8,1.1-3.3,1.5l0.1,0.7l0.1,0.7c0.7,0.3,3.2,0.7,3.8,0.8
					c0.1,0.3,0.2,0.7,0.3,1c-0.5,0.4-2.5,2-2.9,2.6l0.3,0.7l0.3,0.7c0.7,0.1,3.3-0.3,3.9-0.4c0.2,0.3,0.3,0.5,0.5,0.8
					c-0.4,0.6-1.8,2.5-2,3.2l0.5,0.6l0.5,0.6c0.7-0.1,2.6-1,3.4-1.4c0.3,0.3,0.6,0.7,1,1c-0.4,0.8-1.3,2.7-1.3,3.3l0.6,0.5l0.6,0.5
					c0.7-0.2,2.5-1.5,3.1-2c0.3,0.2,0.7,0.4,1,0.6c-0.2,0.9-0.5,2.9-0.4,3.5l0.7,0.3l0.7,0.3c0.5-0.3,1.8-1.9,2.4-2.6
					c0.4,0.1,0.9,0.3,1.3,0.4c0,1,0.2,2.8,0.4,3.4l0.7,0.2l0.7,0.2c0.5-0.5,1.4-2.3,1.8-3.1c0.4,0,0.8,0.1,1.2,0.1
					c0.3,0.8,1.1,2.9,1.5,3.4l0.7-0.1l0.7-0.1c0.3-0.6,0.7-2.7,0.8-3.5c0.5-0.1,0.9-0.2,1.4-0.3c0.5,0.7,1.6,2.5,2.2,2.9l0.7-0.2
					l0.7-0.2c0.2-0.6,0-2.7,0-3.6c0.3-0.1,0.6-0.3,0.9-0.4c0.6,0.5,2.2,2.1,2.8,2.4l0.6-0.4l0.6-0.4c0-0.7-0.7-3-0.9-3.7
					c0.2-0.2,0.5-0.4,0.7-0.6c0.4,0.2,2.8,1.6,3.5,1.7l0.5-0.5l0.5-0.5c-0.2-0.7-1.5-2.9-1.8-3.4c0.1-0.2,0.2-0.3,0.4-0.5
					c0,0,0,0,0,0s3.1,0.8,3.9,0.8l0.4-0.7l0.4-0.7c-0.3-0.6-2.1-2.3-2.6-2.8c0.2-0.3,0.3-0.6,0.4-0.9c0.6,0,3.1,0.1,3.9-0.1l0.2-0.7
					l0.2-0.7c-0.4-0.5-2.4-1.7-3.1-2.1c0.1-0.3,0.1-0.7,0.2-1c0.4-0.1,3.1-0.6,3.8-1l0-0.7l0-0.7c-0.6-0.5-3.1-1.3-3.6-1.4
					c0-0.5,0-0.9-0.1-1.3c0.8-0.3,2.8-1.1,3.3-1.5l-0.1-0.7l-0.1-0.7c-0.7-0.4-3.4-0.7-3.9-0.8c-0.1-0.3-0.2-0.6-0.3-0.8
					c0.5-0.4,2.5-1.9,2.8-2.6l-0.3-0.7l-0.3-0.7c-0.7-0.1-3.1,0.3-3.8,0.4c-0.2-0.3-0.4-0.7-0.6-1c0.5-0.6,1.9-2.4,2.2-3l-0.4-0.6
					l-0.4-0.6c-0.7,0-3,0.9-3.6,1.2c-0.3-0.3-0.6-0.6-0.8-0.8c0.4-0.8,1.3-2.7,1.3-3.4l-0.6-0.5l-0.6-0.5c-0.7,0.2-2.6,1.6-3.2,2
					c-0.3-0.2-0.6-0.4-1-0.6c0.1-0.9,0.5-2.9,0.4-3.6l-0.7-0.3l-0.7-0.3c-0.6,0.4-1.8,1.9-2.4,2.7c-0.4-0.1-0.9-0.3-1.3-0.4
					c0-0.9-0.2-2.9-0.4-3.5l-0.7-0.2l-0.7-0.2c-0.5,0.5-1.4,2.3-1.8,3.1c-0.4,0-0.8-0.1-1.2-0.1c-0.3-0.8-1-2.8-1.4-3.3l-0.7,0.1
					l-0.7,0.1c-0.3,0.6-0.6,2.5-0.8,3.4c-0.5,0.1-0.9,0.2-1.4,0.3c-0.5-0.7-1.6-2.5-2.2-2.9l-0.7,0.2l-0.7,0.2c-0.2,0.6,0,2.7,0,3.6
					c-0.3,0.1-0.6,0.3-0.9,0.4c-0.6-0.5-2.2-2.1-2.8-2.4l-0.6,0.4l-0.6,0.4c0,0.7,0.7,3,0.9,3.7c-0.2,0.2-0.5,0.4-0.7,0.6
					c-0.4-0.3-2.8-1.6-3.5-1.7l-0.5,0.5l-0.5,0.5c0.2,0.7,1.5,2.9,1.8,3.4c-0.1,0.1-0.2,0.3-0.3,0.4c-0.2-0.1-3.1-0.8-3.9-0.8
					l-0.4,0.7l-0.4,0.7c0.3,0.6,2,2.2,2.6,2.8c-0.2,0.3-0.3,0.6-0.4,1c-0.7,0-3.1-0.1-3.8,0.1l-0.2,0.7l-0.2,0.7
					c0.4,0.5,2.3,1.7,3,2.1c-0.1,0.4-0.2,0.7-0.2,1.1c-0.5,0.1-3.1,0.6-3.8,1l0,0.7l0,0.7c0.6,0.4,3,1.2,3.6,1.4
					C153,142.5,153.1,143,153.1,143.4z M157,141.8c0-9,7.3-16.4,16.4-16.4c9,0,16.4,7.3,16.4,16.4s-7.3,16.4-16.4,16.4
					C164.3,158.2,157,150.8,157,141.8z"/>
			</g>
			
				<linearGradient id="SVGID_14_" gradientUnits="userSpaceOnUse" x1="212.0276" y1="141.9243" x2="218.6248" y2="141.9243" gradientTransform="matrix(-1 0 0 1 388.7079 0)">
				<stop  offset="0" style="stop-color:#ADBE14"/>
				<stop  offset="1" style="stop-color:#C4BE14"/>
			</linearGradient>
			<circle fill="url(#SVGID_14_)" cx="173.4" cy="141.9" r="3.3"/>
			
				<linearGradient id="SVGID_15_" gradientUnits="userSpaceOnUse" x1="213.8732" y1="141.9938" x2="216.7793" y2="141.9938" gradientTransform="matrix(-1 0 0 1 388.7079 0)">
				<stop  offset="0" style="stop-color:#ADBE14"/>
				<stop  offset="1" style="stop-color:#C4BE14"/>
			</linearGradient>
			<path fill="url(#SVGID_15_)" d="M171.9,160.2c0,0.8,0.7,1.5,1.5,1.5l0,0c0.8,0,1.5-0.7,1.5-1.5v-36.3c0-0.8-0.7-1.5-1.5-1.5l0,0
				c-0.8,0-1.5,0.7-1.5,1.5V160.2z"/>
			
				<linearGradient id="SVGID_16_" gradientUnits="userSpaceOnUse" x1="201.0299" y1="141.9938" x2="229.6225" y2="141.9938" gradientTransform="matrix(-1 0 0 1 388.7079 0)">
				<stop  offset="0" style="stop-color:#ADBE14"/>
				<stop  offset="1" style="stop-color:#C4BE14"/>
			</linearGradient>
			<path fill="url(#SVGID_16_)" d="M185.2,155.9c0.6,0.6,1.5,0.6,2.1,0l0,0c0.6-0.6,0.6-1.5,0-2.1l-25.7-25.7
				c-0.6-0.6-1.5-0.6-2.1,0l0,0c-0.6,0.6-0.6,1.5,0,2.1L185.2,155.9z"/>
			
				<linearGradient id="SVGID_17_" gradientUnits="userSpaceOnUse" x1="195.7101" y1="141.9938" x2="234.9424" y2="141.9938" gradientTransform="matrix(-1 0 0 1 388.7079 0)">
				<stop  offset="0" style="stop-color:#ADBE14"/>
				<stop  offset="1" style="stop-color:#C4BE14"/>
			</linearGradient>
			<path fill="url(#SVGID_17_)" d="M191.5,143.4c0.8,0,1.5-0.7,1.5-1.5l0,0c0-0.8-0.7-1.5-1.5-1.5h-36.3c-0.8,0-1.5,0.7-1.5,1.5l0,0
				c0,0.8,0.7,1.5,1.5,1.5H191.5z"/>
			
				<linearGradient id="SVGID_18_" gradientUnits="userSpaceOnUse" x1="201.0299" y1="141.9938" x2="229.6225" y2="141.9938" gradientTransform="matrix(-1 0 0 1 388.7079 0)">
				<stop  offset="0" style="stop-color:#ADBE14"/>
				<stop  offset="1" style="stop-color:#C4BE14"/>
			</linearGradient>
			<path fill="url(#SVGID_18_)" d="M187.3,130.2c0.6-0.6,0.6-1.5,0-2.1l0,0c-0.6-0.6-1.5-0.6-2.1,0l-25.7,25.7
				c-0.6,0.6-0.6,1.5,0,2.1l0,0c0.6,0.6,1.5,0.6,2.1,0L187.3,130.2z"/>
			
				<linearGradient id="SVGID_19_" gradientUnits="userSpaceOnUse" x1="207.4121" y1="141.8548" x2="223.2404" y2="141.8548" gradientTransform="matrix(-1 0 0 1 388.7079 0)">
				<stop  offset="0" style="stop-color:#ADBE14"/>
				<stop  offset="1" style="stop-color:#C4BE14"/>
			</linearGradient>
			<circle fill="url(#SVGID_19_)" cx="173.4" cy="141.9" r="7.9"/>
		</g>
		
			<linearGradient id="SVGID_20_" gradientUnits="userSpaceOnUse" x1="176.9584" y1="174.4076" x2="181.9309" y2="174.4076" gradientTransform="matrix(-1 0 0 1 388.7079 0)">
			<stop  offset="0" style="stop-color:#ADBE14"/>
			<stop  offset="1" style="stop-color:#C4BE14"/>
		</linearGradient>
		<circle opacity="0.7" fill="url(#SVGID_20_)" cx="209.3" cy="174.4" r="2.5"/>
		<g>
			
				<linearGradient id="SVGID_21_" gradientUnits="userSpaceOnUse" x1="197.6654" y1="190.9601" x2="247.7843" y2="190.9601" gradientTransform="matrix(-1 0 0 1 388.7079 0)">
				<stop  offset="0" style="stop-color:#ADBE14"/>
				<stop  offset="1" style="stop-color:#C4BE14"/>
			</linearGradient>
			<path fill="url(#SVGID_21_)" d="M140.9,192.3l4.7,2.1l0.4,0.2c0.6,3.4,2.1,6.5,4.2,9.1l-0.1,0.4l-1.5,5l6.1,4.3l4.2-3l0.3-0.2
				c1.6,0.6,3.2,1,5,1.1c1.7,0.2,3.3,0.1,4.9-0.1l0.2,0.2l3.5,3.8l6.8-3l-0.5-5.2l0-0.2c2.7-2.2,4.9-5.1,6.1-8.5l0.1,0l5-1.2
				l0.7-7.4l-4.7-2.1l-0.1-0.1c-0.6-3.5-2.2-6.8-4.4-9.5l0-0.2l1.5-5l-6.1-4.3l-4.2,3l-0.2,0.1c-1.5-0.5-3.1-0.9-4.8-1.1
				c-1.7-0.2-3.4-0.1-5.1,0.1l-0.2-0.2l-3.5-3.8l-6.8,3l0.5,5.2l0,0.4c-2.6,2.2-4.6,5-5.9,8.2l-0.4,0.1l-5,1.2L140.9,192.3z
				 M151.1,189.5c0.8-8.2,8.1-14.3,16.3-13.5c8.2,0.8,14.3,8.1,13.5,16.3c-0.8,8.2-8.1,14.3-16.3,13.5
				C156.3,205.1,150.3,197.8,151.1,189.5z"/>
		</g>
		
			<linearGradient id="SVGID_22_" gradientUnits="userSpaceOnUse" x1="215.0868" y1="190.9601" x2="230.363" y2="190.9601" gradientTransform="matrix(-1 0 0 1 388.7079 0)">
			<stop  offset="0" style="stop-color:#ADBE14"/>
			<stop  offset="1" style="stop-color:#C4BE14"/>
		</linearGradient>
		<circle opacity="0.7" fill="url(#SVGID_22_)" cx="166" cy="191" r="7.6"/>
		<g>
			<g>
				<g>
					
						<linearGradient id="SVGID_23_" gradientUnits="userSpaceOnUse" x1="158.7135" y1="174.4232" x2="200.1757" y2="174.4232" gradientTransform="matrix(-1 0 0 1 388.7079 0)">
						<stop  offset="0" style="stop-color:#ADBE14"/>
						<stop  offset="1" style="stop-color:#C4BE14"/>
					</linearGradient>
					<path fill="url(#SVGID_23_)" d="M190.3,177.7c-2,1.1-1.7,2.1,0.5,2.2s2.8,1.6,1.3,3.2c-1.6,1.6-1,2.5,1.1,2
						c2.2-0.5,3.2,0.7,2.1,2.7c-1,2-0.3,2.7,1.7,1.6c1.9-1.2,3.2-0.3,2.8,1.9c-0.4,2.2,0.6,2.7,2.1,1s3-1.2,3.3,1s1.3,2.4,2.3,0.3
						c0.9-2,2.5-2,3.4,0c0.9,2,2,1.9,2.3-0.3c0.3-2.2,1.8-2.7,3.3-1c1.5,1.7,2.4,1.2,2.1-1c-0.4-2.2,0.9-3.1,2.8-1.9
						c1.9,1.2,2.7,0.5,1.7-1.6s0-3.2,2.1-2.7s2.7-0.4,1.1-2c-1.6-1.6-1-3.1,1.3-3.2s2.5-1.1,0.5-2.2s-1.9-2.6,0.3-3.4
						c2.1-0.8,2-1.8-0.2-2.3c-2.2-0.5-2.6-2-0.8-3.4c1.8-1.4,1.4-2.3-0.8-2.1c-2.2,0.2-3-1.1-1.7-3s0.7-2.7-1.4-1.8
						c-2.1,0.9-3.2-0.2-2.5-2.3c0.7-2.1-0.2-2.7-1.9-1.3s-3.1,0.8-3.1-1.5c0-2.3-1-2.6-2.2-0.7c-1.2,1.9-2.8,1.7-3.4-0.5
						c-0.6-2.2-1.7-2.2-2.3,0c-0.6,2.2-2.2,2.4-3.4,0.5c-1.2-1.9-2.2-1.6-2.2,0.7c0,2.3-1.4,2.9-3.1,1.5s-2.6-0.9-1.9,1.3
						c0.7,2.1-0.4,3.2-2.5,2.3c-2.1-0.9-2.7,0-1.4,1.8c1.3,1.8,0.5,3.2-1.7,3c-2.2-0.2-2.6,0.8-0.8,2.1c1.8,1.4,1.4,2.9-0.8,3.4
						c-2.2,0.5-2.3,1.5-0.2,2.3C192.2,175,192.3,176.6,190.3,177.7z M194.3,174.4c0-8.2,6.7-14.9,14.9-14.9
						c8.2,0,14.9,6.7,14.9,14.9c0,8.2-6.7,14.9-14.9,14.9C201,189.3,194.3,182.6,194.3,174.4z"/>
				</g>
			</g>
		</g>
		<g>
			
				<linearGradient id="SVGID_24_" gradientUnits="userSpaceOnUse" x1="166.8358" y1="174.4075" x2="192.0536" y2="174.4075" gradientTransform="matrix(-1 0 0 1 388.7079 0)">
				<stop  offset="0" style="stop-color:#ADBE14"/>
				<stop  offset="1" style="stop-color:#C4BE14"/>
			</linearGradient>
			<path fill="url(#SVGID_24_)" d="M196.7,174.4c0,7,5.6,12.6,12.6,12.6c7,0,12.6-5.6,12.6-12.6c0-7-5.6-12.6-12.6-12.6
				C202.3,161.8,196.7,167.4,196.7,174.4z M200.2,174.4c0-5,4-9,9-9c5,0,9,4,9,9c0,5-4,9-9,9C204.3,183.4,200.2,179.4,200.2,174.4z"
				/>
		</g>
		
			<linearGradient id="SVGID_25_" gradientUnits="userSpaceOnUse" x1="174.2722" y1="174.4076" x2="184.6171" y2="174.4076" gradientTransform="matrix(-1 0 0 1 388.7079 0)">
			<stop  offset="0" style="stop-color:#ADBE14"/>
			<stop  offset="1" style="stop-color:#C4BE14"/>
		</linearGradient>
		<circle opacity="0.21" fill="url(#SVGID_25_)" cx="209.3" cy="174.4" r="5.2"/>
	</g>
	<g>
		<g>
			<polygon fill="#D0D2D3" points="146.7,241.2 114.8,241.2 119.4,219.6 142.1,219.6 			"/>
			<g>
				<defs>
					<polygon id="SVGID_26_" points="146.7,241.2 114.8,241.2 119.4,219.6 142.1,219.6 					"/>
				</defs>
				<clipPath id="SVGID_27_">
					<use xlink:href="#SVGID_26_"  overflow="visible"/>
				</clipPath>
				<g opacity="0.41" clip-path="url(#SVGID_27_)">
					<image overflow="visible" width="105" height="78" xlink:href="99C20AEB.png"  transform="matrix(1 0 0 1 78 201.5)">
					</image>
				</g>
			</g>
			<path fill="#F2F2F2" d="M153.4,245.5h-45.3c-2.4,0-2.8-4.6-2.8-4.6h50.9C156.2,240.9,155.8,245.5,153.4,245.5z"/>
		</g>
		<path fill="#3C4247" d="M190.7,215.3c0,2.9-2.4,5.3-5.3,5.3H76.1c-2.9,0-5.3-2.4-5.3-5.3v-63.5c0-2.9,2.4-5.3,5.3-5.3h109.3
			c2.9,0,5.3,2.4,5.3,5.3V215.3z"/>
		<linearGradient id="SVGID_28_" gradientUnits="userSpaceOnUse" x1="70.8384" y1="221.7457" x2="190.711" y2="221.7457">
			<stop  offset="0" style="stop-color:#E6E6E6"/>
			<stop  offset="1" style="stop-color:#F2F2F2"/>
		</linearGradient>
		<path fill="url(#SVGID_28_)" d="M70.8,213.9v10.4c0,2.9,2.4,5.3,5.3,5.3h109.3c2.9,0,5.3-2.4,5.3-5.3v-10.4H70.8z"/>
		<rect x="74.7" y="151.5" fill="#FFFFFF" width="112.1" height="57.6"/>
		<linearGradient id="SVGID_29_" gradientUnits="userSpaceOnUse" x1="126.9451" y1="221.4679" x2="134.6059" y2="221.4679">
			<stop  offset="0" style="stop-color:#ADBE14"/>
			<stop  offset="1" style="stop-color:#C4BE14"/>
		</linearGradient>
		<circle fill="url(#SVGID_29_)" cx="130.8" cy="221.5" r="3.8"/>
		<g>
			<linearGradient id="SVGID_30_" gradientUnits="userSpaceOnUse" x1="127.4691" y1="221.468" x2="134.0818" y2="221.468">
				<stop  offset="0" style="stop-color:#C4BE14"/>
				<stop  offset="1" style="stop-color:#ADBE14"/>
			</linearGradient>
			<path fill="url(#SVGID_30_)" d="M130.8,224.8c-1.8,0-3.3-1.5-3.3-3.3c0-1.8,1.5-3.3,3.3-3.3c1.8,0,3.3,1.5,3.3,3.3
				C134.1,223.3,132.6,224.8,130.8,224.8z"/>
			<path fill="#A1B013" d="M130.8,224.9c-1.9,0-3.4-1.5-3.4-3.4c0-1.9,1.5-3.4,3.4-3.4s3.4,1.5,3.4,3.4
				C134.2,223.4,132.7,224.9,130.8,224.9z M130.8,218.3c-1.8,0-3.2,1.4-3.2,3.2s1.4,3.2,3.2,3.2c1.8,0,3.2-1.4,3.2-3.2
				S132.5,218.3,130.8,218.3z"/>
		</g>
		<g>
			<linearGradient id="SVGID_31_" gradientUnits="userSpaceOnUse" x1="130.7754" y1="209.5369" x2="130.7754" y2="203.7146">
				<stop  offset="0" style="stop-color:#ADBE14"/>
				<stop  offset="1" style="stop-color:#C4BE14"/>
			</linearGradient>
			<rect x="74.7" y="203.7" fill="url(#SVGID_31_)" width="112.1" height="5.8"/>
			<g opacity="0.67">
				<linearGradient id="SVGID_32_" gradientUnits="userSpaceOnUse" x1="86.373" y1="209.0721" x2="86.373" y2="204.1793">
					<stop  offset="0" style="stop-color:#FFFFFF"/>
					<stop  offset="0.5108" style="stop-color:#FFFFFF;stop-opacity:0.4892"/>
					<stop  offset="1" style="stop-color:#FFFFFF;stop-opacity:0"/>
				</linearGradient>
				<path fill="url(#SVGID_32_)" d="M88.8,209.1h-4.9c-0.2,0-0.4-0.2-0.4-0.4v-4.1c0-0.2,0.2-0.4,0.4-0.4h4.9c0.2,0,0.4,0.2,0.4,0.4
					v4.1C89.2,208.9,89,209.1,88.8,209.1z"/>
				<linearGradient id="SVGID_33_" gradientUnits="userSpaceOnUse" x1="86.373" y1="209.1194" x2="86.373" y2="204.132">
					<stop  offset="0" style="stop-color:#FFFFFF"/>
					<stop  offset="0.4731" style="stop-color:#FFFFFF;stop-opacity:0.1"/>
					<stop  offset="1" style="stop-color:#FFFFFF;stop-opacity:0.8"/>
				</linearGradient>
				<path fill="url(#SVGID_33_)" d="M88.8,209.1h-4.9c-0.2,0-0.5-0.2-0.5-0.4v-4.1c0-0.2,0.2-0.4,0.5-0.4h4.9c0.2,0,0.4,0.2,0.4,0.4
					v4.1C89.3,208.9,89.1,209.1,88.8,209.1z M83.9,204.2c-0.2,0-0.4,0.2-0.4,0.4v4.1c0,0.2,0.2,0.4,0.4,0.4h4.9
					c0.2,0,0.4-0.2,0.4-0.4v-4.1c0-0.2-0.2-0.4-0.4-0.4H83.9z"/>
			</g>
			<g opacity="0.67">
				<linearGradient id="SVGID_34_" gradientUnits="userSpaceOnUse" x1="93.2387" y1="209.0721" x2="93.2387" y2="204.1793">
					<stop  offset="0" style="stop-color:#FFFFFF"/>
					<stop  offset="0.5108" style="stop-color:#FFFFFF;stop-opacity:0.4892"/>
					<stop  offset="1" style="stop-color:#FFFFFF;stop-opacity:0"/>
				</linearGradient>
				<path fill="url(#SVGID_34_)" d="M95.7,209.1h-4.9c-0.2,0-0.4-0.2-0.4-0.4v-4.1c0-0.2,0.2-0.4,0.4-0.4h4.9c0.2,0,0.4,0.2,0.4,0.4
					v4.1C96.1,208.9,95.9,209.1,95.7,209.1z"/>
				<linearGradient id="SVGID_35_" gradientUnits="userSpaceOnUse" x1="93.2386" y1="209.1194" x2="93.2386" y2="204.132">
					<stop  offset="0" style="stop-color:#FFFFFF"/>
					<stop  offset="0.4731" style="stop-color:#FFFFFF;stop-opacity:0.1"/>
					<stop  offset="1" style="stop-color:#FFFFFF;stop-opacity:0.8"/>
				</linearGradient>
				<path fill="url(#SVGID_35_)" d="M95.7,209.1h-4.9c-0.2,0-0.5-0.2-0.5-0.4v-4.1c0-0.2,0.2-0.4,0.5-0.4h4.9c0.2,0,0.4,0.2,0.4,0.4
					v4.1C96.1,208.9,95.9,209.1,95.7,209.1z M90.8,204.2c-0.2,0-0.4,0.2-0.4,0.4v4.1c0,0.2,0.2,0.4,0.4,0.4h4.9
					c0.2,0,0.4-0.2,0.4-0.4v-4.1c0-0.2-0.2-0.4-0.4-0.4H90.8z"/>
			</g>
			<g opacity="0.67">
				<linearGradient id="SVGID_36_" gradientUnits="userSpaceOnUse" x1="100.1044" y1="209.0721" x2="100.1044" y2="204.1793">
					<stop  offset="0" style="stop-color:#FFFFFF"/>
					<stop  offset="0.5108" style="stop-color:#FFFFFF;stop-opacity:0.4892"/>
					<stop  offset="1" style="stop-color:#FFFFFF;stop-opacity:0"/>
				</linearGradient>
				<path fill="url(#SVGID_36_)" d="M102.5,209.1h-4.9c-0.2,0-0.4-0.2-0.4-0.4v-4.1c0-0.2,0.2-0.4,0.4-0.4h4.9
					c0.2,0,0.4,0.2,0.4,0.4v4.1C102.9,208.9,102.8,209.1,102.5,209.1z"/>
				<linearGradient id="SVGID_37_" gradientUnits="userSpaceOnUse" x1="100.1043" y1="209.1194" x2="100.1043" y2="204.132">
					<stop  offset="0" style="stop-color:#FFFFFF"/>
					<stop  offset="0.4731" style="stop-color:#FFFFFF;stop-opacity:0.1"/>
					<stop  offset="1" style="stop-color:#FFFFFF;stop-opacity:0.8"/>
				</linearGradient>
				<path fill="url(#SVGID_37_)" d="M102.5,209.1h-4.9c-0.2,0-0.5-0.2-0.5-0.4v-4.1c0-0.2,0.2-0.4,0.5-0.4h4.9
					c0.2,0,0.4,0.2,0.4,0.4v4.1C103,208.9,102.8,209.1,102.5,209.1z M97.7,204.2c-0.2,0-0.4,0.2-0.4,0.4v4.1c0,0.2,0.2,0.4,0.4,0.4
					h4.9c0.2,0,0.4-0.2,0.4-0.4v-4.1c0-0.2-0.2-0.4-0.4-0.4H97.7z"/>
			</g>
			<g opacity="0.67">
				<linearGradient id="SVGID_38_" gradientUnits="userSpaceOnUse" x1="106.97" y1="209.0721" x2="106.97" y2="204.1793">
					<stop  offset="0" style="stop-color:#FFFFFF"/>
					<stop  offset="0.5108" style="stop-color:#FFFFFF;stop-opacity:0.4892"/>
					<stop  offset="1" style="stop-color:#FFFFFF;stop-opacity:0"/>
				</linearGradient>
				<path fill="url(#SVGID_38_)" d="M109.4,209.1h-4.9c-0.2,0-0.4-0.2-0.4-0.4v-4.1c0-0.2,0.2-0.4,0.4-0.4h4.9
					c0.2,0,0.4,0.2,0.4,0.4v4.1C109.8,208.9,109.6,209.1,109.4,209.1z"/>
				<linearGradient id="SVGID_39_" gradientUnits="userSpaceOnUse" x1="106.97" y1="209.1194" x2="106.97" y2="204.132">
					<stop  offset="0" style="stop-color:#FFFFFF"/>
					<stop  offset="0.4731" style="stop-color:#FFFFFF;stop-opacity:0.1"/>
					<stop  offset="1" style="stop-color:#FFFFFF;stop-opacity:0.8"/>
				</linearGradient>
				<path fill="url(#SVGID_39_)" d="M109.4,209.1h-4.9c-0.2,0-0.5-0.2-0.5-0.4v-4.1c0-0.2,0.2-0.4,0.5-0.4h4.9
					c0.2,0,0.4,0.2,0.4,0.4v4.1C109.9,208.9,109.7,209.1,109.4,209.1z M104.5,204.2c-0.2,0-0.4,0.2-0.4,0.4v4.1
					c0,0.2,0.2,0.4,0.4,0.4h4.9c0.2,0,0.4-0.2,0.4-0.4v-4.1c0-0.2-0.2-0.4-0.4-0.4H104.5z"/>
			</g>
		</g>
	</g>
	<g>
		<g>
			<linearGradient id="SVGID_40_" gradientUnits="userSpaceOnUse" x1="216.971" y1="227.0975" x2="217.4445" y2="227.0975">
				<stop  offset="0" style="stop-color:#ADBE14"/>
				<stop  offset="1" style="stop-color:#C4BE14"/>
			</linearGradient>
			<rect x="217" y="206.4" fill="url(#SVGID_40_)" width="0.5" height="41.4"/>
			<linearGradient id="SVGID_41_" gradientUnits="userSpaceOnUse" x1="216.971" y1="198.7874" x2="217.4445" y2="198.7874">
				<stop  offset="0" style="stop-color:#ADBE14"/>
				<stop  offset="1" style="stop-color:#C4BE14"/>
			</linearGradient>
			<rect x="217" y="196.3" fill="url(#SVGID_41_)" width="0.5" height="5"/>
			<linearGradient id="SVGID_42_" gradientUnits="userSpaceOnUse" x1="220.0224" y1="225.4342" x2="220.4959" y2="225.4342">
				<stop  offset="0" style="stop-color:#ADBE14"/>
				<stop  offset="1" style="stop-color:#C4BE14"/>
			</linearGradient>
			<rect x="220" y="215.3" fill="url(#SVGID_42_)" width="0.5" height="20.2"/>
			<linearGradient id="SVGID_43_" gradientUnits="userSpaceOnUse" x1="213.0684" y1="209.8928" x2="213.5419" y2="209.8928">
				<stop  offset="0" style="stop-color:#ADBE14"/>
				<stop  offset="1" style="stop-color:#C4BE14"/>
			</linearGradient>
			<rect x="213.1" y="203.7" fill="url(#SVGID_43_)" width="0.5" height="12.4"/>
		</g>
	</g>
	<linearGradient id="SVGID_44_" gradientUnits="userSpaceOnUse" x1="8.641" y1="226.2845" x2="8.641" y2="226.2845">
		<stop  offset="0" style="stop-color:#000000;stop-opacity:0.3"/>
		<stop  offset="1" style="stop-color:#FFFFFF;stop-opacity:0"/>
	</linearGradient>
	<path fill="url(#SVGID_44_)" d="M8.6,226.3"/>
	
		<linearGradient id="SVGID_45_" gradientUnits="userSpaceOnUse" x1="117.8094" y1="91.0524" x2="117.8094" y2="85.5677" gradientTransform="matrix(0.913 0.408 -0.408 0.913 11.1538 1.5068)">
		<stop  offset="0" style="stop-color:#ADBE14"/>
		<stop  offset="1" style="stop-color:#C4BE14"/>
	</linearGradient>
	<polygon fill="url(#SVGID_45_)" points="83.8,127.7 83.9,129.7 85.6,130.8 83.7,131.5 83.2,133.4 81.9,131.8 79.9,132 81.1,130.3 
		80.3,128.4 82.2,129 	"/>
	<g opacity="0.31">
		
			<image overflow="visible" opacity="0.4" width="52" height="52" xlink:href="99C20AEE.png"  transform="matrix(1 0 0 1 163.9921 80.4921)">
		</image>
		<g>
			<circle fill="#FFFFFF" cx="189.8" cy="106.1" r="8"/>
		</g>
	</g>
	<rect x="128.7" y="170.5" fill="#F2F2F2" width="14.8" height="27.2"/>
	<linearGradient id="SVGID_46_" gradientUnits="userSpaceOnUse" x1="103.4267" y1="185.6001" x2="157.3089" y2="129.4683">
		<stop  offset="0" style="stop-color:#E6E6E6"/>
		<stop  offset="1" style="stop-color:#F2F2F2"/>
	</linearGradient>
	<rect x="77.4" y="154.5" fill="url(#SVGID_46_)" width="106" height="6.2"/>
	<linearGradient id="SVGID_47_" gradientUnits="userSpaceOnUse" x1="77.4904" y1="173.4299" x2="86.6718" y2="163.8653">
		<stop  offset="0" style="stop-color:#ADBE14"/>
		<stop  offset="1" style="stop-color:#C4BE14"/>
	</linearGradient>
	<rect x="77.4" y="164" fill="url(#SVGID_47_)" width="9.4" height="9.4"/>
	<linearGradient id="SVGID_48_" gradientUnits="userSpaceOnUse" x1="77.4904" y1="186.6837" x2="86.6718" y2="177.1191">
		<stop  offset="0" style="stop-color:#ADBE14"/>
		<stop  offset="1" style="stop-color:#C4BE14"/>
	</linearGradient>
	<rect x="77.4" y="177.2" fill="url(#SVGID_48_)" width="9.4" height="9.4"/>
	<linearGradient id="SVGID_49_" gradientUnits="userSpaceOnUse" x1="77.4904" y1="199.9376" x2="86.6718" y2="190.373">
		<stop  offset="0" style="stop-color:#ADBE14"/>
		<stop  offset="1" style="stop-color:#C4BE14"/>
	</linearGradient>
	<rect x="77.4" y="190.5" fill="url(#SVGID_49_)" width="9.4" height="9.4"/>
	<linearGradient id="SVGID_50_" gradientUnits="userSpaceOnUse" x1="96.0362" y1="177.5302" x2="113.0894" y2="159.765">
		<stop  offset="0" style="stop-color:#E6E6E6"/>
		<stop  offset="1" style="stop-color:#F2F2F2"/>
	</linearGradient>
	<rect x="89.2" y="166.3" fill="url(#SVGID_50_)" width="30.7" height="4.7"/>
	<linearGradient id="SVGID_51_" gradientUnits="userSpaceOnUse" x1="96.0362" y1="191.0374" x2="113.0894" y2="173.2722">
		<stop  offset="0" style="stop-color:#E6E6E6"/>
		<stop  offset="1" style="stop-color:#F2F2F2"/>
	</linearGradient>
	<rect x="89.2" y="179.8" fill="url(#SVGID_51_)" width="30.7" height="4.7"/>
	<linearGradient id="SVGID_52_" gradientUnits="userSpaceOnUse" x1="96.0362" y1="204.0378" x2="113.0894" y2="186.2727">
		<stop  offset="0" style="stop-color:#E6E6E6"/>
		<stop  offset="1" style="stop-color:#F2F2F2"/>
	</linearGradient>
	<rect x="89.2" y="192.8" fill="url(#SVGID_52_)" width="30.7" height="4.7"/>
	<rect x="124.3" y="160.6" fill="#C1C1C1" width="1" height="43.1"/>
	<rect x="128.7" y="162.3" fill="#C1C1C1" width="54.1" height="6.3"/>
	<rect x="128.7" y="168.6" fill="#E6E6E6" width="14.8" height="3.3"/>
	<rect x="128.7" y="175.3" fill="#E6E6E6" width="14.8" height="3.3"/>
	<rect x="128.7" y="181.9" fill="#E6E6E6" width="14.8" height="3.3"/>
	<rect x="128.7" y="188.5" fill="#E6E6E6" width="14.8" height="3.3"/>
	<rect x="128.7" y="195.1" fill="#E6E6E6" width="14.8" height="3.3"/>
	<g>
		<rect x="128.7" y="170.5" fill="#F2F2F2" width="14.8" height="27.2"/>
		<linearGradient id="SVGID_53_" gradientUnits="userSpaceOnUse" x1="128.7306" y1="170.2845" x2="143.5647" y2="170.2845">
			<stop  offset="0" style="stop-color:#ADBE14"/>
			<stop  offset="1" style="stop-color:#C4BE14"/>
		</linearGradient>
		<rect x="128.7" y="168.6" fill="url(#SVGID_53_)" width="14.8" height="3.3"/>
		<rect x="128.7" y="175.3" fill="#E6E6E6" width="14.8" height="3.3"/>
		<rect x="128.7" y="181.9" fill="#E6E6E6" width="14.8" height="3.3"/>
		<rect x="128.7" y="188.5" fill="#E6E6E6" width="14.8" height="3.3"/>
		<rect x="128.7" y="195.1" fill="#E6E6E6" width="14.8" height="3.3"/>
	</g>
	<g>
		<rect x="144.3" y="170.5" fill="#F2F2F2" width="14.8" height="27.2"/>
		<rect x="144.3" y="168.6" fill="#E6E6E6" width="14.8" height="3.3"/>
		<rect x="144.3" y="175.3" fill="#E6E6E6" width="14.8" height="3.3"/>
		<rect x="144.3" y="181.9" fill="#E6E6E6" width="14.8" height="3.3"/>
		<rect x="144.3" y="188.5" fill="#E6E6E6" width="14.8" height="3.3"/>
		<rect x="144.3" y="195.1" fill="#E6E6E6" width="14.8" height="3.3"/>
	</g>
	<g>
		<rect x="159.8" y="170.5" fill="#F2F2F2" width="14.8" height="27.2"/>
		<rect x="159.8" y="168.6" fill="#E6E6E6" width="14.8" height="3.3"/>
		<rect x="159.8" y="175.3" fill="#E6E6E6" width="14.8" height="3.3"/>
		<rect x="159.8" y="181.9" fill="#E6E6E6" width="14.8" height="3.3"/>
		<rect x="159.8" y="188.5" fill="#E6E6E6" width="14.8" height="3.3"/>
		<rect x="159.8" y="195.1" fill="#E6E6E6" width="14.8" height="3.3"/>
	</g>
	<g>
		<rect x="175.3" y="170.5" fill="#F2F2F2" width="7.5" height="27.2"/>
		<rect x="175.3" y="168.6" fill="#E6E6E6" width="7.5" height="3.3"/>
		<rect x="175.3" y="175.3" fill="#E6E6E6" width="7.5" height="3.3"/>
		<rect x="175.3" y="181.9" fill="#E6E6E6" width="7.5" height="3.3"/>
		<rect x="175.3" y="188.5" fill="#E6E6E6" width="7.5" height="3.3"/>
		<rect x="175.3" y="195.1" fill="#E6E6E6" width="7.5" height="3.3"/>
	</g>
	<g>
		<rect x="159.8" y="170.5" fill="#F2F2F2" width="14.8" height="27.2"/>
		<rect x="159.8" y="168.6" fill="#E6E6E6" width="14.8" height="3.3"/>
		<rect x="159.8" y="175.3" fill="#E6E6E6" width="14.8" height="3.3"/>
		<rect x="159.8" y="181.9" fill="#E6E6E6" width="14.8" height="3.3"/>
		<rect x="159.8" y="188.5" fill="#E6E6E6" width="14.8" height="3.3"/>
		<rect x="159.8" y="195.1" fill="#E6E6E6" width="14.8" height="3.3"/>
	</g>
	<g>
		<polygon fill="#231F20" points="175.8,194.8 172.6,192.6 173.1,196.5 174.3,195.8 175,197.1 175.5,196.8 174.7,195.5 		"/>
	</g>
	<g>
		<g>
			<g>
				
					<linearGradient id="SVGID_54_" gradientUnits="userSpaceOnUse" x1="-3128.2817" y1="4268.9121" x2="-3109.4087" y2="4268.9121" gradientTransform="matrix(0.6925 -0.7214 -0.7214 -0.6925 5362.5376 836.1937)">
					<stop  offset="0" style="stop-color:#ADBE14"/>
					<stop  offset="1" style="stop-color:#C4BE14"/>
				</linearGradient>
				<path fill="url(#SVGID_54_)" d="M128.1,123.7c0.1-0.3,0.5-1.1,0.5-1.4l-0.2-0.2l-0.2-0.2c-0.3,0.1-1.1,0.7-1.3,0.9
					c-0.1-0.1-0.2-0.1-0.4-0.2c0-0.2,0.1-1.2,0-1.5l-0.3-0.1L126,121c-0.2,0.2-0.8,1-0.9,1.2c-0.1,0-0.2-0.1-0.3-0.1
					c0-0.3-0.2-1.2-0.4-1.5l-0.3,0l-0.3,0c-0.2,0.2-0.4,1-0.5,1.3c-0.2,0-0.4,0-0.5,0c-0.1-0.3-0.4-1.1-0.6-1.3l-0.3,0l-0.3,0
					c-0.1,0.2-0.3,1.1-0.3,1.4c-0.1,0-0.3,0.1-0.4,0.1c-0.2-0.3-0.7-0.9-0.9-1.1l-0.3,0.1l-0.3,0.1c-0.1,0.3,0,1,0.1,1.4
					c-0.2,0.1-0.3,0.2-0.5,0.3c-0.3-0.2-0.9-0.7-1.1-0.8l-0.2,0.2l-0.2,0.2c0,0.3,0.3,1,0.4,1.4c-0.1,0.1-0.2,0.2-0.4,0.3
					c-0.3-0.1-1.1-0.5-1.4-0.5l-0.2,0.2l-0.2,0.2c0.1,0.2,0.6,0.9,0.8,1.2c-0.1,0.2-0.2,0.3-0.3,0.5c-0.3-0.1-1.1-0.2-1.4-0.2
					l-0.1,0.3l-0.1,0.3c0.1,0.2,0.8,0.7,1,1c0,0.1-0.1,0.2-0.1,0.4c-0.3,0-1.2,0-1.5,0.1l-0.1,0.3l-0.1,0.3c0.2,0.2,1,0.6,1.3,0.8
					c0,0.1,0,0.2,0,0.4c-0.2,0.1-1.2,0.4-1.5,0.5l0,0.3l0,0.3c0.3,0.2,1.2,0.4,1.5,0.4c0,0.1,0,0.2,0,0.2c0,0,0,0,0,0
					s-1.1,0.6-1.3,0.9l0.1,0.3l0.1,0.3c0.3,0.1,1.2,0,1.5,0c0,0.1,0.1,0.3,0.1,0.4c-0.2,0.2-0.9,0.9-1,1.1l0.1,0.3l0.1,0.3
					c0.3,0,1.1-0.2,1.4-0.3c0.1,0.1,0.2,0.2,0.2,0.3c-0.1,0.1-0.7,1.1-0.8,1.3l0.2,0.2l0.2,0.2c0.3,0,1.2-0.5,1.4-0.6
					c0.1,0.1,0.3,0.2,0.4,0.3c-0.1,0.3-0.5,1.1-0.5,1.4l0.2,0.2l0.2,0.2c0.3-0.1,1.1-0.8,1.3-0.9c0.1,0.1,0.2,0.1,0.3,0.2
					c0,0.3-0.1,1.2,0,1.5l0.3,0.1l0.3,0.1c0.2-0.2,0.8-1,0.9-1.2c0.1,0,0.3,0.1,0.5,0.1c0,0.3,0.1,1.2,0.3,1.4l0.3,0l0.3,0
					c0.2-0.2,0.5-1.1,0.6-1.4c0.2,0,0.3,0,0.5,0c0.1,0.3,0.4,1.1,0.6,1.3l0.3,0l0.3,0c0.1-0.2,0.3-1.2,0.3-1.5
					c0.1,0,0.3-0.1,0.4-0.1c0.2,0.3,0.7,0.9,0.9,1.1l0.3-0.1l0.3-0.1c0.1-0.3-0.1-1.1-0.1-1.4c0.2-0.1,0.3-0.2,0.5-0.3
					c0.3,0.2,0.9,0.7,1.1,0.8l0.2-0.2l0.2-0.2c0-0.3-0.3-1-0.4-1.4c0.1-0.1,0.2-0.2,0.4-0.3c0.3,0.1,1.1,0.5,1.3,0.5l0.2-0.2
					l0.2-0.2c-0.1-0.2-0.5-0.8-0.8-1.1c0.1-0.2,0.2-0.3,0.3-0.5c0.3,0.1,1.1,0.2,1.4,0.2l0.1-0.3l0.1-0.3c-0.1-0.2-0.8-0.7-1-1
					c0-0.1,0.1-0.2,0.1-0.4c0.3,0,1.2,0,1.5-0.1l0.1-0.3l0.1-0.3c-0.2-0.2-1-0.6-1.3-0.8c0-0.1,0-0.2,0-0.4c0.2-0.1,1.2-0.4,1.4-0.5
					l0-0.3l0-0.3c-0.2-0.2-1.2-0.4-1.5-0.4c0-0.1,0-0.1,0-0.2c0.1,0,1.1-0.7,1.3-0.9l-0.1-0.3l-0.1-0.3c-0.3-0.1-1.2,0-1.5,0
					c0-0.1-0.1-0.3-0.1-0.4c0.2-0.2,0.9-0.9,1-1.1l-0.1-0.3l-0.1-0.3c-0.3,0-1.1,0.2-1.4,0.3c-0.1-0.1-0.2-0.2-0.2-0.4
					c0.1-0.2,0.7-1,0.8-1.3l-0.2-0.2l-0.2-0.2c-0.3,0-1.2,0.5-1.4,0.6C128.4,123.9,128.3,123.8,128.1,123.7z M127.5,125.3
					c2.6,2.5,2.7,6.6,0.2,9.1c-2.5,2.6-6.6,2.7-9.1,0.2c-2.6-2.5-2.7-6.6-0.2-9.1C120.9,122.9,125,122.8,127.5,125.3z"/>
			</g>
			
				<linearGradient id="SVGID_55_" gradientUnits="userSpaceOnUse" x1="-3120.1455" y1="4268.9941" x2="-3117.5447" y2="4268.9941" gradientTransform="matrix(0.6925 -0.7214 -0.7214 -0.6925 5362.5376 836.1937)">
				<stop  offset="0" style="stop-color:#ADBE14"/>
				<stop  offset="1" style="stop-color:#C4BE14"/>
			</linearGradient>
			<circle fill="url(#SVGID_55_)" cx="123" cy="129.9" r="1.3"/>
			
				<linearGradient id="SVGID_56_" gradientUnits="userSpaceOnUse" x1="-3119.418" y1="4269.0215" x2="-3118.2722" y2="4269.0215" gradientTransform="matrix(0.6925 -0.7214 -0.7214 -0.6925 5362.5376 836.1937)">
				<stop  offset="0" style="stop-color:#ADBE14"/>
				<stop  offset="1" style="stop-color:#C4BE14"/>
			</linearGradient>
			<path fill="url(#SVGID_56_)" d="M118.2,124.5c-0.2-0.2-0.6-0.2-0.8,0l0,0c-0.2,0.2-0.2,0.6,0,0.8l10.3,9.9c0.2,0.2,0.6,0.2,0.8,0
				l0,0c0.2-0.2,0.2-0.6,0-0.8L118.2,124.5z"/>
			
				<linearGradient id="SVGID_57_" gradientUnits="userSpaceOnUse" x1="-3124.4812" y1="4269.0215" x2="-3113.2092" y2="4269.0215" gradientTransform="matrix(0.6925 -0.7214 -0.7214 -0.6925 5362.5376 836.1937)">
				<stop  offset="0" style="stop-color:#ADBE14"/>
				<stop  offset="1" style="stop-color:#C4BE14"/>
			</linearGradient>
			<path fill="url(#SVGID_57_)" d="M115.8,129.4c-0.3,0-0.6,0.3-0.6,0.6l0,0c0,0.3,0.3,0.6,0.6,0.6l14.3-0.3c0.3,0,0.6-0.3,0.6-0.6
				l0,0c0-0.3-0.3-0.6-0.6-0.6L115.8,129.4z"/>
			
				<linearGradient id="SVGID_58_" gradientUnits="userSpaceOnUse" x1="-3126.5784" y1="4269.0215" x2="-3111.1118" y2="4269.0215" gradientTransform="matrix(0.6925 -0.7214 -0.7214 -0.6925 5362.5376 836.1937)">
				<stop  offset="0" style="stop-color:#ADBE14"/>
				<stop  offset="1" style="stop-color:#C4BE14"/>
			</linearGradient>
			<path fill="url(#SVGID_58_)" d="M117.6,134.6c-0.2,0.2-0.2,0.6,0,0.8l0,0c0.2,0.2,0.6,0.2,0.8,0l9.9-10.3c0.2-0.2,0.2-0.6,0-0.8
				l0,0c-0.2-0.2-0.6-0.2-0.8,0L117.6,134.6z"/>
			
				<linearGradient id="SVGID_59_" gradientUnits="userSpaceOnUse" x1="-3124.4812" y1="4269.0215" x2="-3113.2092" y2="4269.0215" gradientTransform="matrix(0.6925 -0.7214 -0.7214 -0.6925 5362.5376 836.1937)">
				<stop  offset="0" style="stop-color:#ADBE14"/>
				<stop  offset="1" style="stop-color:#C4BE14"/>
			</linearGradient>
			<path fill="url(#SVGID_59_)" d="M122.6,137c0,0.3,0.3,0.6,0.6,0.6l0,0c0.3,0,0.6-0.3,0.6-0.6l-0.3-14.3c0-0.3-0.3-0.6-0.6-0.6
				l0,0c-0.3,0-0.6,0.3-0.6,0.6L122.6,137z"/>
			
				<linearGradient id="SVGID_60_" gradientUnits="userSpaceOnUse" x1="-3121.9651" y1="4268.9668" x2="-3115.7251" y2="4268.9668" gradientTransform="matrix(0.6925 -0.7214 -0.7214 -0.6925 5362.5376 836.1937)">
				<stop  offset="0" style="stop-color:#ADBE14"/>
				<stop  offset="1" style="stop-color:#C4BE14"/>
			</linearGradient>
			<circle fill="url(#SVGID_60_)" cx="123" cy="129.9" r="3.1"/>
		</g>
		
			<linearGradient id="SVGID_61_" gradientUnits="userSpaceOnUse" x1="-3133.9709" y1="4281.8003" x2="-3132.0107" y2="4281.8003" gradientTransform="matrix(0.6925 -0.7214 -0.7214 -0.6925 5362.5376 836.1937)">
			<stop  offset="0" style="stop-color:#ADBE14"/>
			<stop  offset="1" style="stop-color:#C4BE14"/>
		</linearGradient>
		<circle opacity="0.7" fill="url(#SVGID_61_)" cx="104" cy="131.2" r="1"/>
		<g>
			
				<linearGradient id="SVGID_62_" gradientUnits="userSpaceOnUse" x1="-3125.8076" y1="4288.3257" x2="-3106.0491" y2="4288.3257" gradientTransform="matrix(0.6925 -0.7214 -0.7214 -0.6925 5362.5376 836.1937)">
				<stop  offset="0" style="stop-color:#ADBE14"/>
				<stop  offset="1" style="stop-color:#C4BE14"/>
			</linearGradient>
			<path fill="url(#SVGID_62_)" d="M117.6,106.9l-1.9,0.8l-0.2,0.1c-1.1-0.8-2.4-1.2-3.7-1.3l-0.1-0.1l-1-1.8l-2.9,0.6l-0.3,2l0,0.1
				c-0.6,0.3-1.2,0.7-1.7,1.1c-0.5,0.4-0.9,0.9-1.3,1.4l-0.1,0l-2,0l-1,2.8l1.6,1.3l0.1,0c-0.1,1.4,0.1,2.8,0.7,4.1l0,0l-1,1.8
				l1.9,2.2l1.9-0.8l0,0c1.2,0.8,2.5,1.2,3.9,1.3l0,0.1l1,1.8l2.9-0.6l0.3-2l0-0.1c0.6-0.3,1.1-0.6,1.6-1.1c0.5-0.4,1-0.9,1.3-1.5
				l0.1,0l2,0l1-2.8l-1.6-1.3l-0.1-0.1c0.1-1.3-0.2-2.7-0.7-3.9l0.1-0.2l1-1.8L117.6,106.9z M115.6,110.5c2.1,2.5,1.8,6.2-0.6,8.3
				c-2.5,2.1-6.2,1.8-8.3-0.6c-2.1-2.5-1.8-6.2,0.6-8.3C109.7,107.8,113.4,108.1,115.6,110.5z"/>
		</g>
		
			<linearGradient id="SVGID_63_" gradientUnits="userSpaceOnUse" x1="-3118.9397" y1="4288.3257" x2="-3112.9172" y2="4288.3257" gradientTransform="matrix(0.6925 -0.7214 -0.7214 -0.6925 5362.5376 836.1937)">
			<stop  offset="0" style="stop-color:#ADBE14"/>
			<stop  offset="1" style="stop-color:#C4BE14"/>
		</linearGradient>
		<circle opacity="0.7" fill="url(#SVGID_63_)" cx="111.1" cy="114.4" r="3"/>
		<g>
			<g>
				<g>
					
						<linearGradient id="SVGID_64_" gradientUnits="userSpaceOnUse" x1="-3141.1636" y1="4281.8062" x2="-3124.8179" y2="4281.8062" gradientTransform="matrix(0.6925 -0.7214 -0.7214 -0.6925 5362.5376 836.1937)">
						<stop  offset="0" style="stop-color:#ADBE14"/>
						<stop  offset="1" style="stop-color:#C4BE14"/>
					</linearGradient>
					<path fill="url(#SVGID_64_)" d="M108.2,124.9c0.2-0.9-0.1-1.1-0.8-0.5c-0.7,0.6-1.2,0.4-1.3-0.5c0-0.9-0.4-1-0.9-0.2
						c-0.4,0.8-1.1,0.7-1.4-0.1c-0.3-0.8-0.7-0.8-0.9,0.1c-0.2,0.9-0.8,1-1.3,0.3c-0.5-0.7-0.9-0.6-0.8,0.3c0.1,0.9-0.5,1.2-1.2,0.7
						c-0.7-0.5-1-0.3-0.7,0.6c0.3,0.8-0.1,1.3-0.9,1c-0.8-0.3-1.1,0-0.5,0.7c0.6,0.7,0.3,1.2-0.6,1.2s-1,0.4-0.3,0.9
						c0.7,0.5,0.6,1.1-0.2,1.3s-0.9,0.6,0,0.9c0.8,0.3,0.9,0.9,0.2,1.3c-0.8,0.5-0.6,0.9,0.3,0.9c0.9,0,1.1,0.6,0.6,1.2
						c-0.6,0.7-0.4,1,0.5,0.8c0.8-0.3,1.3,0.2,0.9,1c-0.4,0.8,0,1.1,0.7,0.6c0.7-0.5,1.3-0.2,1.2,0.7c-0.1,0.9,0.3,1,0.8,0.3
						s1.1-0.5,1.3,0.3s0.6,0.9,0.9,0.1c0.3-0.8,0.9-0.9,1.4-0.1c0.4,0.8,0.8,0.7,0.9-0.2c0.1-0.9,0.6-1.1,1.3-0.5
						c0.6,0.6,1,0.4,0.8-0.4s0.3-1.2,1.1-0.8c0.8,0.4,1.1,0.1,0.6-0.7c-0.4-0.8-0.1-1.3,0.8-1.1s1.1-0.2,0.4-0.8
						c-0.7-0.6-0.5-1.2,0.4-1.3s1-0.5,0.2-0.9s-0.8-1,0-1.4c0.8-0.4,0.8-0.8-0.1-0.9s-1-0.7-0.4-1.3c0.7-0.6,0.5-1-0.4-0.8
						s-1.2-0.4-0.7-1.1c0.5-0.8,0.2-1.1-0.6-0.7C108.5,126.2,108,125.8,108.2,124.9z M108.1,127c2.3,2.2,2.4,6,0.2,8.3
						s-6,2.4-8.3,0.2c-2.3-2.2-2.4-6-0.2-8.3C102,124.8,105.7,124.7,108.1,127z"/>
				</g>
			</g>
		</g>
		<g>
			
				<linearGradient id="SVGID_65_" gradientUnits="userSpaceOnUse" x1="-3137.9617" y1="4281.8003" x2="-3128.02" y2="4281.8003" gradientTransform="matrix(0.6925 -0.7214 -0.7214 -0.6925 5362.5376 836.1937)">
				<stop  offset="0" style="stop-color:#ADBE14"/>
				<stop  offset="1" style="stop-color:#C4BE14"/>
			</linearGradient>
			<path fill="url(#SVGID_65_)" d="M107.4,127.6c-2-1.9-5.1-1.8-7,0.1c-1.9,2-1.8,5.1,0.1,7c2,1.9,5.1,1.8,7-0.1
				C109.5,132.7,109.4,129.5,107.4,127.6z M106.4,128.7c1.4,1.4,1.5,3.6,0.1,5s-3.6,1.5-5,0.1c-1.4-1.4-1.5-3.6-0.1-5
				C102.8,127.3,105,127.3,106.4,128.7z"/>
		</g>
		
			<linearGradient id="SVGID_66_" gradientUnits="userSpaceOnUse" x1="-3135.03" y1="4281.8003" x2="-3130.9517" y2="4281.8003" gradientTransform="matrix(0.6925 -0.7214 -0.7214 -0.6925 5362.5376 836.1937)">
			<stop  offset="0" style="stop-color:#ADBE14"/>
			<stop  offset="1" style="stop-color:#C4BE14"/>
		</linearGradient>
		<circle opacity="0.21" fill="url(#SVGID_66_)" cx="104" cy="131.2" r="2"/>
	</g>
	<g opacity="0.65">
		
			<image overflow="visible" opacity="0.4" width="58" height="58" xlink:href="99C20AEF.png"  transform="matrix(1 0 0 1 162.9921 121.4921)">
		</image>
		<g>
			<circle fill="#FFFFFF" cx="191.6" cy="150.3" r="11.1"/>
		</g>
	</g>
</g>
</svg>
