<?xml version="1.0" encoding="iso-8859-1"?>
<!-- Generator: Adobe Illustrator 18.1.1, SVG Export Plug-In . SVG Version: 6.00 Build 0)  -->
<svg version="1.1" id="Layer_1" xmlns="http://www.w3.org/2000/svg" xmlns:xlink="http://www.w3.org/1999/xlink" x="0px" y="0px"
	 viewBox="0 0 333.235 333.235" style="enable-background:new 0 0 333.235 333.235;" xml:space="preserve">
<g style="display:none;">
	<g style="display:inline;">
		<g>
			<path style="fill:#FFFFFF;" d="M131.556,88.62c4.551,4.551,10.465,7.177,16.746,7.469l1.786,1.788
				c-1.391-0.333-2.824-0.514-4.268-0.514c-6.55,0-12.654,3.445-15.935,8.991l-1.323,2.237l2.253,1.295
				c2.74,1.575,5.875,2.406,9.065,2.406c6.473,0,12.509-3.371,15.816-8.805l13.908,13.918v16.264c-0.001,0.021,0,11.986,0,11.986
				l-14.869-14.87c-1.002-1.001-2.627-1.002-3.631,0c-1.002,1.002-1.002,2.628,0,3.631l18.5,18.5V181.3h5.134v-46.536l9.514-9.514
				c3.771,4.035,9.048,6.324,14.733,6.324c4.459,0,8.659-1.414,12.146-4.085l2.064-1.581l-1.607-2.043
				c-3.804-4.837-9.58-7.612-15.848-7.612c-0.9,0-1.79,0.06-2.665,0.174l1.649-1.649c12.512-0.59,22.595-10.983,22.674-23.614
				l0.016-2.599l-2.599,0.016c-12.557,0.079-22.905,10.045-23.606,22.452l-16.471,16.47V76.938l10.835-10.762
				c10.505-0.553,18.954-9.301,19.021-19.921l0.015-2.599l-2.598,0.016c-10.516,0.066-19.192,8.35-19.902,18.709l-7.372,7.323
				v-6.611c0-1.418-1.149-2.567-2.567-2.567c-1.418,0-2.567,1.149-2.567,2.567v47.052L159.34,99.872l0.104-0.079
				c7.979-6.055,9.627-17.534,3.673-25.589l-1.546-2.09l-2.069,1.571c-6.209,4.712-8.582,12.709-6.524,19.82l-1.11-1.111
				c-0.322-6.235-2.947-12.099-7.467-16.618c-4.795-4.796-11.103-7.46-17.762-7.502l-2.599-0.016l0.016,2.599
				C124.096,77.515,126.76,83.824,131.556,88.62z M139.88,107.161c-1.288,0-2.562-0.188-3.781-0.553
				c2.483-2.584,6-4.109,9.721-4.109c1.289,0,2.563,0.188,3.781,0.552C147.118,105.636,143.601,107.161,139.88,107.161z
				 M201.822,99.232c2.838-2.839,6.389-4.662,10.207-5.281c-0.619,3.819-2.443,7.369-5.28,10.208
				c-2.839,2.839-6.389,4.662-10.208,5.281C197.16,105.622,198.983,102.071,201.822,99.232z M195.74,121.387
				c3.68,0,7.124,1.271,9.802,3.556c-2.01,0.985-4.235,1.496-6.557,1.496c-3.678,0-7.124-1.271-9.801-3.556
				C191.194,121.898,193.418,121.387,195.74,121.387z M199.145,49.122c-1.231,5.735-5.898,10.402-11.633,11.633
				C188.741,55.02,193.409,50.352,199.145,49.122z M160.463,79.839c1.928,4.542,1.147,9.984-1.979,13.801
				C156.556,89.098,157.336,83.656,160.463,79.839z M140.771,79.406c3.152,3.152,5.152,7.113,5.783,11.367
				c-4.255-0.631-8.215-2.631-11.369-5.783c-3.152-3.153-5.152-7.114-5.783-11.368C133.657,74.253,137.618,76.253,140.771,79.406z"
				/>
		</g>
		<g>
			<path style="fill:#FFFFFF;" d="M201.822,99.232"/>
		</g>
	</g>
	<g style="display:inline;">
		<path style="fill:#FFFFFF;" d="M176.599,283.269h-9.6c-5.751,0-10.43-4.679-10.43-10.43c0-1.381,1.119-2.5,2.5-2.5
			s2.5,1.119,2.5,2.5c0,2.994,2.436,5.43,5.43,5.43h9.6c2.994,0,5.431-2.436,5.431-5.43c0-1.381,1.119-2.5,2.5-2.5
			s2.5,1.119,2.5,2.5C187.029,278.591,182.351,283.269,176.599,283.269z"/>
	</g>
	<g style="display:inline;">
		<g>
			<path style="fill:#FFFFFF;" d="M175.835,231.908c1.291,0,2.338-1.047,2.338-2.338c0-1.292-1.045-2.339-2.338-2.339h-1.875
				c-0.268-1.216-0.746-2.396-1.437-3.479l1.323-1.322c0.913-0.913,0.913-2.393,0-3.306c-0.457-0.457-1.055-0.685-1.653-0.685
				c-0.598,0-1.196,0.228-1.653,0.685l-1.321,1.321c-1.069-0.685-2.243-1.17-3.482-1.443v-1.867c0-1.292-1.045-2.338-2.338-2.338
				c-1.29,0-2.338,1.045-2.338,2.336v1.869c-1.239,0.271-2.414,0.758-3.482,1.443l-1.321-1.321
				c-0.457-0.457-1.055-0.685-1.653-0.685c-0.598,0-1.197,0.228-1.653,0.685c-0.913,0.913-0.913,2.393,0,3.306l1.322,1.322
				c-0.691,1.084-1.169,2.263-1.437,3.481h-1.875c-1.29,0-2.338,1.045-2.338,2.338c0,1.29,1.047,2.338,2.338,2.338h1.875
				c0.268,1.218,0.746,2.395,1.437,3.479l-1.322,1.323c-0.913,0.913-0.913,2.394,0,3.307c0.913,0.912,2.392,0.912,3.306-0.002
				l1.321-1.321c1.068,0.685,2.243,1.17,3.482,1.443v1.869c0,1.29,1.047,2.338,2.338,2.338c1.291,0,2.338-1.047,2.338-2.338v-1.869
				c1.239-0.272,2.414-0.758,3.481-1.443l1.322,1.321c0.912,0.913,2.393,0.913,3.306,0.002c0.913-0.913,0.913-2.394,0-3.307
				l-1.324-1.323c0.691-1.084,1.17-2.261,1.437-3.479H175.835L175.835,231.908z M167.746,225.223c2.396,2.396,2.396,6.295,0,8.692
				c-1.161,1.161-2.704,1.8-4.347,1.8c-1.642,0-3.186-0.639-4.347-1.8c-2.397-2.397-2.397-6.296,0-8.693
				c1.161-1.16,2.704-1.799,4.345-1.799C165.04,223.423,166.583,224.062,167.746,225.223L167.746,225.223z M167.746,225.223"/>
		</g>
	</g>
	<g style="display:inline;">
		<g>
			<path style="fill:#FFFFFF;" d="M191.144,216.496c0.938,0,1.699-0.761,1.699-1.699c0-0.939-0.76-1.7-1.699-1.7h-1.363
				c-0.195-0.884-0.542-1.741-1.044-2.529l0.961-0.961c0.664-0.664,0.664-1.739,0-2.403c-0.332-0.332-0.767-0.498-1.202-0.498
				c-0.435,0-0.869,0.166-1.201,0.498l-0.96,0.96c-0.777-0.498-1.631-0.851-2.531-1.049v-1.357c0-0.939-0.76-1.699-1.699-1.699
				c-0.938,0-1.699,0.76-1.699,1.698v1.358c-0.901,0.197-1.754,0.551-2.531,1.049l-0.96-0.96c-0.332-0.332-0.767-0.498-1.201-0.498
				s-0.87,0.166-1.201,0.498c-0.664,0.664-0.664,1.739,0,2.403l0.961,0.961c-0.502,0.788-0.85,1.645-1.044,2.53h-1.363
				c-0.938,0-1.699,0.76-1.699,1.699c0,0.938,0.761,1.699,1.699,1.699h1.363c0.195,0.885,0.542,1.741,1.044,2.529l-0.961,0.961
				c-0.664,0.664-0.664,1.74,0,2.404c0.663,0.663,1.739,0.663,2.403-0.001l0.96-0.96c0.776,0.498,1.63,0.851,2.531,1.049v1.358
				c0,0.938,0.761,1.699,1.699,1.699c0.938,0,1.699-0.761,1.699-1.699v-1.358c0.901-0.198,1.754-0.551,2.53-1.049l0.961,0.96
				c0.663,0.664,1.739,0.664,2.403,0.001c0.664-0.664,0.664-1.74,0-2.404l-0.963-0.961c0.502-0.788,0.851-1.644,1.044-2.529H191.144
				L191.144,216.496z M185.265,211.637c1.741,1.741,1.741,4.575,0,6.318c-0.844,0.844-1.966,1.309-3.159,1.309
				s-2.315-0.464-3.159-1.309c-1.742-1.742-1.742-4.576,0-6.318c0.844-0.843,1.966-1.308,3.158-1.308
				C183.298,210.328,184.42,210.793,185.265,211.637L185.265,211.637z M185.265,211.637"/>
		</g>
	</g>
	<g style="display:inline;">
		<path style="fill:#FFFFFF;" d="M185.672,255.389h-27.747c-0.389,0-0.773-0.091-1.121-0.266
			c-11.416-5.725-18.507-17.202-18.507-29.953c0-18.473,15.029-33.501,33.501-33.501s33.501,15.028,33.501,33.501
			c0,12.751-7.092,24.229-18.507,29.953C186.444,255.299,186.061,255.389,185.672,255.389z M158.529,250.389h26.538
			c9.411-4.955,15.232-14.564,15.232-25.219c0-15.716-12.785-28.501-28.501-28.501s-28.501,12.785-28.501,28.501
			C143.297,235.825,149.118,245.434,158.529,250.389z"/>
	</g>
	<g style="display:inline;">
		<path style="fill:#FFFFFF;" d="M186.382,264.894h-29.167c-3.303,0-5.99-2.688-5.99-5.99v-2.167c0-3.303,2.687-5.99,5.99-5.99
			h29.167c3.303,0,5.99,2.688,5.99,5.99v2.167C192.372,262.207,189.685,264.894,186.382,264.894z M157.215,255.747
			c-0.537,0-0.99,0.453-0.99,0.99v2.167c0,0.537,0.454,0.99,0.99,0.99h29.167c0.537,0,0.99-0.453,0.99-0.99v-2.167
			c0-0.537-0.453-0.99-0.99-0.99H157.215z"/>
	</g>
	<g style="display:inline;">
		<path style="fill:#FFFFFF;" d="M186.382,274.042h-29.167c-3.303,0-5.99-2.688-5.99-5.991v-2.166c0-3.303,2.687-5.99,5.99-5.99
			h29.167c3.303,0,5.99,2.688,5.99,5.99v2.166C192.372,271.354,189.685,274.042,186.382,274.042z M157.215,264.894
			c-0.537,0-0.99,0.453-0.99,0.99v2.166c0,0.537,0.454,0.991,0.99,0.991h29.167c0.537,0,0.99-0.454,0.99-0.991v-2.166
			c0-0.537-0.453-0.99-0.99-0.99H157.215z"/>
	</g>
	<g style="display:inline;">
		<path style="fill:#FFFFFF;" d="M170.726,294.451c-31.338,0-56.833-25.495-56.833-56.833s25.495-56.833,56.833-56.833
			c31.338,0,56.833,25.495,56.833,56.833S202.064,294.451,170.726,294.451z M170.726,185.785c-28.581,0-51.833,23.252-51.833,51.833
			s23.252,51.833,51.833,51.833c28.582,0,51.833-23.252,51.833-51.833S199.308,185.785,170.726,185.785z"/>
	</g>
</g>
<g style="display:none;">
	<g style="display:inline;">
		<path style="fill:#FFFFFF;" d="M186.539,240.343h-39.844c-1.733,0-3.138-1.404-3.138-3.138v-27.38
			c0-1.733,1.404-3.138,3.138-3.138h39.844c1.733,0,3.138,1.404,3.138,3.138v27.38C189.677,238.938,188.273,240.343,186.539,240.343
			z M149.833,234.067h33.568v-21.104h-33.568V234.067z"/>
	</g>
	<g style="display:inline;">
		<path style="fill:#FFFFFF;" d="M233.947,242.437c-0.6-4.747-4.672-8.452-9.575-8.452H108.863c-4.903,0-8.975,3.705-9.575,8.452
			H233.947z"/>
	</g>
	<g style="display:inline;">
		<path style="fill:#FFFFFF;" d="M256.869,212.963H76.366c-7.224,0-13.102-5.877-13.102-13.102V103.9
			c0-7.224,5.877-13.102,13.102-13.102h180.503c7.224,0,13.102,5.877,13.102,13.102v95.962
			C269.971,207.086,264.093,212.963,256.869,212.963z M76.366,97.074c-3.763,0-6.826,3.062-6.826,6.826v95.962
			c0,3.764,3.063,6.826,6.826,6.826h180.503c3.764,0,6.826-3.062,6.826-6.826V103.9c0-3.764-3.062-6.826-6.826-6.826H76.366z"/>
	</g>
	<g style="display:inline;">
		<g>
			<g>
				<path style="fill:#FFFFFF;" d="M166.086,109.873c-9.976,0-18.064,8.087-18.064,18.064s8.087,18.064,18.064,18.064
					c9.976,0,18.064-8.087,18.064-18.064S176.063,109.873,166.086,109.873z M166.086,116.227c3.116,0,5.641,2.526,5.641,5.641
					c0,3.116-2.526,5.641-5.641,5.641s-5.641-2.526-5.641-5.641C160.445,118.753,162.971,116.227,166.086,116.227z M174.769,139.647
					h-17.365v-3.806c0-3.96,3.24-7.199,7.199-7.199h2.966c3.96,0,7.199,3.24,7.199,7.199V139.647z"/>
			</g>
		</g>
		<g>
			<g>
				<path style="fill:#FFFFFF;" d="M141.819,154.194c-9.976,0-18.064,8.087-18.064,18.063c0,9.977,8.087,18.064,18.064,18.064
					c9.976,0,18.064-8.087,18.064-18.064C159.883,162.282,151.795,154.194,141.819,154.194z M141.819,160.548
					c3.116,0,5.641,2.526,5.641,5.641s-2.526,5.641-5.641,5.641c-3.116,0-5.641-2.526-5.641-5.641S138.703,160.548,141.819,160.548z
					 M150.501,183.968h-17.365v-3.806c0-3.96,3.24-7.199,7.199-7.199h2.966c3.96,0,7.199,3.24,7.199,7.199V183.968z"/>
			</g>
		</g>
		<g>
			<g>
				<path style="fill:#FFFFFF;" d="M191.416,154.194c-9.976,0-18.064,8.087-18.064,18.063c0,9.977,8.087,18.064,18.064,18.064
					c9.976,0,18.064-8.087,18.064-18.064C209.48,162.282,201.392,154.194,191.416,154.194z M191.416,160.548
					c3.116,0,5.641,2.526,5.641,5.641s-2.526,5.641-5.641,5.641c-3.116,0-5.641-2.526-5.641-5.641S188.3,160.548,191.416,160.548z
					 M200.098,183.968h-17.365v-3.806c0-3.96,3.24-7.199,7.199-7.199h2.966c3.96,0,7.199,3.24,7.199,7.199V183.968z"/>
			</g>
		</g>
		<g>
			<path style="fill:#FFFFFF;" d="M166.086,158.721c-1.373,0-2.485-1.112-2.485-2.485V144.55c0-1.372,1.112-2.485,2.485-2.485
				c1.373,0,2.485,1.114,2.485,2.485v11.685C168.572,157.609,167.459,158.721,166.086,158.721z"/>
		</g>
		<g>
			<path style="fill:#FFFFFF;" d="M155.303,169.505c-0.636,0-1.272-0.242-1.757-0.728c-0.971-0.97-0.971-2.543,0-3.514
				l10.783-10.784c0.97-0.97,2.544-0.972,3.514,0c0.971,0.97,0.971,2.543,0,3.514l-10.783,10.784
				C156.575,169.261,155.939,169.505,155.303,169.505z"/>
		</g>
		<g>
			<path style="fill:#FFFFFF;" d="M177.693,170.329c-0.635,0-1.272-0.244-1.757-0.728l-11.607-11.608
				c-0.971-0.971-0.971-2.544,0-3.514c0.97-0.972,2.544-0.97,3.514,0l11.607,11.608c0.971,0.971,0.971,2.544,0,3.514
				C178.965,170.087,178.329,170.329,177.693,170.329z"/>
		</g>
	</g>
</g>
<g style="display:none;">
	<g style="display:inline;">
		<g>
			<path style="fill:#FFFFFF;" d="M111.128,90.557c-5.191,0-9.415-4.223-9.415-9.414V59.872c0-5.191,4.224-9.414,9.415-9.414
				s9.414,4.223,9.414,9.414v21.271C120.542,86.334,116.319,90.557,111.128,90.557z M111.128,56.198
				c-2.026,0-3.675,1.648-3.675,3.674v21.271c0,2.026,1.648,3.674,3.675,3.674c2.026,0,3.674-1.648,3.674-3.674V59.872
				C114.802,57.845,113.154,56.198,111.128,56.198z"/>
		</g>
		<g>
			<path style="fill:#FFFFFF;" d="M203.524,90.557c-5.191,0-9.415-4.223-9.415-9.414V59.872c0-5.191,4.224-9.414,9.415-9.414
				s9.414,4.223,9.414,9.414v21.271C212.938,86.334,208.715,90.557,203.524,90.557z M203.524,56.198
				c-2.026,0-3.675,1.648-3.675,3.674v21.271c0,2.026,1.649,3.674,3.675,3.674s3.674-1.648,3.674-3.674V59.872
				C207.198,57.845,205.55,56.198,203.524,56.198z"/>
		</g>
	</g>
	<g style="display:inline;">
		<g>
			<path style="fill:#FFFFFF;" d="M226.521,73.37h-16.453v7.772c0,3.6-2.945,6.544-6.545,6.544c-3.6,0-6.545-2.945-6.545-6.544
				V73.37h-79.306v7.772c0,3.6-2.945,6.544-6.545,6.544c-3.599,0-6.545-2.945-6.545-6.544V73.37H88.13
				c-5.739,0-10.435,4.696-10.435,10.435v16.97h159.262v-16.97C236.957,78.066,232.261,73.37,226.521,73.37z"/>
		</g>
	</g>
	<g style="display:inline;">
		<path style="fill:#FFFFFF;" d="M204.112,208.768H88.13c-7.337,0-13.305-5.969-13.305-13.305V83.805
			c0-7.336,5.968-13.305,13.305-13.305h16.453c1.585,0,2.87,1.285,2.87,2.87v7.772c0,2.026,1.648,3.674,3.675,3.674
			c2.026,0,3.674-1.648,3.674-3.674V73.37c0-1.585,1.285-2.87,2.87-2.87h79.306c1.585,0,2.87,1.285,2.87,2.87v7.772
			c0,2.026,1.649,3.674,3.675,3.674s3.674-1.648,3.674-3.674V73.37c0-1.585,1.285-2.87,2.87-2.87h16.453
			c7.336,0,13.305,5.969,13.305,13.305v88.987c0,1.585-1.285,2.87-2.87,2.87s-2.87-1.285-2.87-2.87V83.805
			c0-4.171-3.394-7.565-7.565-7.565h-13.583v4.902c0,5.191-4.223,9.414-9.414,9.414s-9.415-4.223-9.415-9.414V76.24h-73.566v4.902
			c0,5.191-4.223,9.414-9.414,9.414s-9.415-4.223-9.415-9.414V76.24H88.13c-4.171,0-7.565,3.394-7.565,7.565v111.658
			c0,4.171,3.394,7.565,7.565,7.565h115.982c1.585,0,2.87,1.285,2.87,2.87C206.982,207.483,205.698,208.768,204.112,208.768z"/>
	</g>
	<g style="display:inline;">
		<g>
			<path style="fill:#FFFFFF;" d="M110.539,133.603H96.127c-1.585,0-2.87-1.285-2.87-2.87v-14.414c0-1.585,1.285-2.87,2.87-2.87
				h14.413c1.585,0,2.87,1.285,2.87,2.87v14.414C113.409,132.318,112.125,133.603,110.539,133.603z M98.997,127.863h8.672v-8.674
				h-8.672V127.863z"/>
		</g>
		<g>
			<path style="fill:#FFFFFF;" d="M137.536,133.603h-14.413c-1.585,0-2.87-1.285-2.87-2.87v-14.414c0-1.585,1.285-2.87,2.87-2.87
				h14.413c1.585,0,2.87,1.285,2.87,2.87v14.414C140.406,132.318,139.121,133.603,137.536,133.603z M125.993,127.863h8.672v-8.674
				h-8.672V127.863z"/>
		</g>
		<g>
			<path style="fill:#FFFFFF;" d="M164.532,133.603h-14.413c-1.585,0-2.87-1.285-2.87-2.87v-14.414c0-1.585,1.285-2.87,2.87-2.87
				h14.413c1.585,0,2.87,1.285,2.87,2.87v14.414C167.402,132.318,166.117,133.603,164.532,133.603z M152.989,127.863h8.672v-8.674
				h-8.672V127.863z"/>
		</g>
		<g>
			<path style="fill:#FFFFFF;" d="M191.528,133.603h-14.413c-1.585,0-2.87-1.285-2.87-2.87v-14.414c0-1.585,1.285-2.87,2.87-2.87
				h14.413c1.585,0,2.87,1.285,2.87,2.87v14.414C194.398,132.318,193.114,133.603,191.528,133.603z M179.986,127.863h8.672v-8.674
				h-8.672V127.863z"/>
		</g>
		<g>
			<path style="fill:#FFFFFF;" d="M218.525,133.603h-14.413c-1.585,0-2.87-1.285-2.87-2.87v-14.414c0-1.585,1.285-2.87,2.87-2.87
				h14.413c1.585,0,2.87,1.285,2.87,2.87v14.414C221.395,132.318,220.11,133.603,218.525,133.603z M206.982,127.863h8.672v-8.674
				h-8.672V127.863z"/>
		</g>
	</g>
	<g style="display:inline;">
		<g>
			<path style="fill:#FFFFFF;" d="M110.539,160.911H96.127c-1.585,0-2.87-1.285-2.87-2.87v-14.413c0-1.585,1.285-2.87,2.87-2.87
				h14.413c1.585,0,2.87,1.285,2.87,2.87v14.413C113.409,159.626,112.125,160.911,110.539,160.911z M98.997,155.171h8.672v-8.672
				h-8.672V155.171z"/>
		</g>
		<g>
			<path style="fill:#FFFFFF;" d="M137.536,160.911h-14.413c-1.585,0-2.87-1.285-2.87-2.87v-14.413c0-1.585,1.285-2.87,2.87-2.87
				h14.413c1.585,0,2.87,1.285,2.87,2.87v14.413C140.406,159.626,139.121,160.911,137.536,160.911z M125.993,155.171h8.672v-8.672
				h-8.672V155.171z"/>
		</g>
		<g>
			<path style="fill:#FFFFFF;" d="M164.532,160.911h-14.413c-1.585,0-2.87-1.285-2.87-2.87v-14.413c0-1.585,1.285-2.87,2.87-2.87
				h14.413c1.585,0,2.87,1.285,2.87,2.87v14.413C167.402,159.626,166.117,160.911,164.532,160.911z M152.989,155.171h8.672v-8.672
				h-8.672V155.171z"/>
		</g>
		<g>
			<path style="fill:#FFFFFF;" d="M191.528,160.911h-14.413c-1.585,0-2.87-1.285-2.87-2.87v-14.413c0-1.585,1.285-2.87,2.87-2.87
				h14.413c1.585,0,2.87,1.285,2.87,2.87v14.413C194.398,159.626,193.114,160.911,191.528,160.911z M179.986,155.171h8.672v-8.672
				h-8.672V155.171z"/>
		</g>
		<g>
			<path style="fill:#FFFFFF;" d="M218.525,160.911h-14.413c-1.585,0-2.87-1.285-2.87-2.87v-14.413c0-1.585,1.285-2.87,2.87-2.87
				h14.413c1.585,0,2.87,1.285,2.87,2.87v14.413C221.395,159.626,220.11,160.911,218.525,160.911z M206.982,155.171h8.672v-8.672
				h-8.672V155.171z"/>
		</g>
	</g>
	<g style="display:inline;">
		<g>
			<path style="fill:#FFFFFF;" d="M110.539,188.22H96.127c-1.585,0-2.87-1.285-2.87-2.87v-14.413c0-1.585,1.285-2.87,2.87-2.87
				h14.413c1.585,0,2.87,1.285,2.87,2.87v14.413C113.409,186.935,112.125,188.22,110.539,188.22z M98.997,182.48h8.672v-8.672
				h-8.672V182.48z"/>
		</g>
		<g>
			<path style="fill:#FFFFFF;" d="M137.536,188.22h-14.413c-1.585,0-2.87-1.285-2.87-2.87v-14.413c0-1.585,1.285-2.87,2.87-2.87
				h14.413c1.585,0,2.87,1.285,2.87,2.87v14.413C140.406,186.935,139.121,188.22,137.536,188.22z M125.993,182.48h8.672v-8.672
				h-8.672V182.48z"/>
		</g>
		<g>
			<path style="fill:#FFFFFF;" d="M164.532,188.22h-14.413c-1.585,0-2.87-1.285-2.87-2.87v-14.413c0-1.585,1.285-2.87,2.87-2.87
				h14.413c1.585,0,2.87,1.285,2.87,2.87v14.413C167.402,186.935,166.117,188.22,164.532,188.22z M152.989,182.48h8.672v-8.672
				h-8.672V182.48z"/>
		</g>
		<g>
			<path style="fill:#FFFFFF;" d="M191.528,188.22h-14.413c-1.585,0-2.87-1.285-2.87-2.87v-14.413c0-1.585,1.285-2.87,2.87-2.87
				h14.413c1.585,0,2.87,1.285,2.87,2.87v14.413C194.398,186.935,193.114,188.22,191.528,188.22z M179.986,182.48h8.672v-8.672
				h-8.672V182.48z"/>
		</g>
		<g>
			<path style="fill:#FFFFFF;" d="M211.318,188.22h-7.206c-1.585,0-2.87-1.285-2.87-2.87v-14.413c0-1.585,1.285-2.87,2.87-2.87
				h14.413c1.585,0,2.87,1.285,2.87,2.87v7.206c0,1.585-1.285,2.87-2.87,2.87s-2.87-1.285-2.87-2.87v-4.336h-8.672v8.672h4.336
				c1.585,0,2.87,1.285,2.87,2.87S212.903,188.22,211.318,188.22z"/>
		</g>
	</g>
	<g style="display:inline;">
		<path style="fill:#FFFFFF;" d="M240.759,244.961c-20.742,0-37.616-16.875-37.616-37.617s16.874-37.616,37.616-37.616
			s37.617,16.874,37.617,37.616S261.501,244.961,240.759,244.961z M240.759,175.862c-17.358,0-31.481,14.123-31.481,31.481
			c0,17.359,14.123,31.482,31.481,31.482c17.359,0,31.482-14.123,31.482-31.482C272.241,189.985,258.118,175.862,240.759,175.862z"
			/>
	</g>
	<g style="display:inline;">
		<path style="fill:#FFFFFF;" d="M236.521,235.752c-0.131,0-0.264-0.011-0.398-0.032c-6.653-1.086-12.754-4.521-17.177-9.673
			c-0.883-1.028-0.765-2.578,0.264-3.461c1.027-0.884,2.579-0.765,3.461,0.264c3.671,4.276,8.73,7.125,14.244,8.027
			c1.337,0.218,2.245,1.48,2.026,2.817C238.743,234.898,237.702,235.752,236.521,235.752z"/>
	</g>
	<g style="display:inline;">
		<path style="fill:#FFFFFF;" d="M258.573,229.146c-0.663,0-1.323-0.266-1.807-0.792c-0.918-0.998-0.853-2.55,0.144-3.468
			c4.905-4.513,7.719-10.91,7.719-17.551c0-13.153-10.701-23.853-23.854-23.853c-11.275,0-21.104,8.012-23.369,19.051
			c-0.272,1.327-1.564,2.187-2.898,1.91c-1.328-0.272-2.183-1.57-1.91-2.898c2.731-13.311,14.582-22.972,28.177-22.972
			c15.86,0,28.763,12.903,28.763,28.762c0,8.01-3.391,15.724-9.303,21.163C259.761,228.931,259.166,229.146,258.573,229.146z"/>
	</g>
	<g style="display:inline;">
		<path style="fill:#FFFFFF;" d="M246.905,204.92c2.221,2.175,3.307,5.075,3.307,7.929c0,2.854-1.087,5.754-3.307,7.975
			c-2.175,2.175-5.075,3.307-7.975,3.307c-2.854,0-5.754-1.132-7.929-3.307c-0.997-0.997-0.997-2.628,0-3.625
			c0.996-0.997,2.628-0.997,3.625,0c1.178,1.178,2.718,1.768,4.304,1.768c1.585,0,3.127-0.59,4.35-1.768
			c1.224-1.224,1.812-2.765,1.812-4.35c0-1.587-0.588-3.127-1.812-4.304c-1.178-1.224-2.719-1.768-4.304-1.813
			c-0.725,0.046-1.406-0.272-1.859-0.815c-0.046,0-0.046,0-0.046-0.046c-1.041-0.997-1.041-2.584-0.09-3.625l4.622-4.713h-7.341
			c-1.404,0-2.537-1.132-2.537-2.582c0-1.404,1.132-2.538,2.537-2.538h13.368c1.45,0,2.582,1.134,2.582,2.538
			c0,0.453-0.135,0.86-0.318,1.224c-0.135,0.226-0.271,0.453-0.453,0.634l-5.709,5.891
			C244.911,203.244,245.998,203.969,246.905,204.92z"/>
	</g>
</g>
<g>
	<g>
		<circle style="fill:#FFFFFF;" cx="166.617" cy="76.57" r="22.348"/>
		<g>
			<path style="fill:#FFFFFF;" d="M201.013,131.922c0-15.686-12.834-28.52-28.52-28.52h-1.162l4.844,4.837l-5.608,10.062H167h-0.766
				h-3.566l-5.608-10.062l4.844-4.837h-1.162c-15.686,0-28.52,12.834-28.52,28.52v15.079h27.864l3.031-26.337h7.001l3.031,26.337
				h27.864V131.922z"/>
		</g>
	</g>
	<g>
		<g>
			<path style="fill:#FFFFFF;" d="M101.818,172.446c0,7.772-6.3,14.072-14.072,14.072s-14.072-6.3-14.072-14.072
				c0-7.772,6.3-14.072,14.072-14.072S101.818,164.674,101.818,172.446z M109.404,216.793v-9.494
				c0-9.877-8.081-17.958-17.958-17.958h-7.399c-9.877,0-17.958,8.081-17.958,17.958v9.494H109.404z"/>
		</g>
		<g>
			<path style="fill:#FFFFFF;" d="M154.399,172.446c0,7.772-6.3,14.072-14.072,14.072c-7.772,0-14.072-6.3-14.072-14.072
				c0-7.772,6.3-14.072,14.072-14.072C148.099,158.374,154.399,164.674,154.399,172.446z M161.984,216.793v-9.494
				c0-9.877-8.081-17.958-17.958-17.958h-7.399c-9.877,0-17.958,8.081-17.958,17.958v9.494H161.984z"/>
		</g>
		<g>
			<path style="fill:#FFFFFF;" d="M206.979,172.446c0,7.772-6.3,14.072-14.072,14.072s-14.072-6.3-14.072-14.072
				c0-7.772,6.3-14.072,14.072-14.072S206.979,164.674,206.979,172.446z M214.565,216.793v-9.494
				c0-9.877-8.081-17.958-17.958-17.958h-7.399c-9.877,0-17.958,8.081-17.958,17.958v9.494H214.565z"/>
		</g>
		<g>
			<path style="fill:#FFFFFF;" d="M259.56,172.446c0,7.772-6.3,14.072-14.072,14.072s-14.072-6.3-14.072-14.072
				c0-7.772,6.3-14.072,14.072-14.072S259.56,164.674,259.56,172.446z M267.145,216.793v-9.494c0-9.877-8.081-17.958-17.958-17.958
				h-7.399c-9.877,0-17.958,8.081-17.958,17.958v9.494H267.145z"/>
		</g>
	</g>
</g>
</svg>
