<?xml version="1.0" encoding="iso-8859-1"?>
<!-- Generator: Adobe Illustrator 18.1.1, SVG Export Plug-In . SVG Version: 6.00 Build 0)  -->
<svg version="1.1" id="Layer_1" xmlns="http://www.w3.org/2000/svg" xmlns:xlink="http://www.w3.org/1999/xlink" x="0px" y="0px"
	 viewBox="0 0 402.271 96.382" style="enable-background:new 0 0 402.271 96.382;" xml:space="preserve">
<path style="fill:#AEC010;" d="M69.196,28.921v-7.952c0-0.062,0-0.111,0-0.146V19.3c0-3.397,1.842-5.097,5.527-5.097h1.804h1.86
	c3.647,0,5.472,1.701,5.472,5.097c0,7.051,0,14.101,0,21.152c0,7.051,0,14.097,0,21.148c0,5.621-2.151,10.42-6.454,14.389
	c-4.302,3.97-9.483,5.955-15.538,5.955H47.204c-6.093,0-11.291-1.985-15.593-5.955c-4.302-3.969-6.454-8.768-6.454-14.389
	c0-2.252,0-4.5,0-6.739c0-2.241,0-4.504,0-6.786c0-5.594,2.151-10.378,6.454-14.365c4.302-3.983,9.5-5.978,15.593-5.978h14.663
	C64.38,27.731,66.822,28.13,69.196,28.921z M61.867,41.308H47.204c-2.033,0-3.772,0.666-5.215,1.999
	c-1.447,1.336-2.169,2.925-2.169,4.767c0,2.283,0,4.545,0,6.786c0,2.238,0,4.487,0,6.739c0,1.877,0.722,3.48,2.169,4.816
	c1.443,1.332,3.182,1.999,5.215,1.999h14.663c1.961,0,3.671-0.666,5.135-1.999c1.465-1.336,2.193-2.938,2.193-4.816v-9.906v-3.765
	c-0.07-1.812-0.815-3.366-2.245-4.667C65.521,41.96,63.828,41.308,61.867,41.308z M104.358,48.074c0,5.427,0,9.295,0,11.595
	c0,2.304,0,4.067,0,5.288c0,1.225,0,2.428,0,3.623c0,1.19,0,3.39,0,6.599v0.093v1.572c0,3.401-1.825,5.097-5.472,5.097h-1.86h-1.808
	c-3.681,0-5.524-1.697-5.524-5.097V63.605v-0.049V48.074c0-5.594,2.151-10.378,6.454-14.365c4.302-3.983,9.5-5.978,15.593-5.978
	c0.101,0,0.205,0.01,0.309,0.025c0.104,0.017,0.222,0.024,0.361,0.024h1.134c3.685,0,5.527,1.697,5.527,5.097v3.379
	c0,3.369-1.842,5.051-5.527,5.051h-1.804c-1.239,0-2.783,0.438-4.622,1.312C105.277,43.494,104.358,45.313,104.358,48.074z
	 M161.512,81.943h-14.663c-6.093,0-11.29-1.985-15.593-5.955c-4.302-3.969-6.454-8.768-6.454-14.389V49.885v-3.813V34.542v-1.714
	c0-3.397,1.842-5.097,5.524-5.097h3.668c3.646,0,5.472,1.7,5.472,5.097v1.668v0.045v17.293v9.764c0,1.877,0.722,3.48,2.168,4.816
	c1.444,1.332,3.182,1.999,5.215,1.999h14.663c1.96,0,3.671-0.666,5.135-1.999c1.465-1.336,2.193-2.938,2.193-4.816v-9.764V34.542
	v-0.045v-1.668c0-3.397,1.842-5.097,5.527-5.097h3.664c3.646,0,5.472,1.7,5.472,5.097v1.714v11.531v3.813v11.714
	c0,5.621-2.152,10.42-6.454,14.389C172.747,79.958,167.566,81.943,161.512,81.943z M194.863,14.202h3.667
	c3.647,0,5.47,1.701,5.47,5.097v39.489l32.061-29.579c2.616-2.349,5.218-2.349,7.8,0l2.581,2.428c2.616,2.384,2.616,4.778,0,7.193
	l-17.349,16.006l17.349,16.055c2.616,2.38,2.616,4.764,0,7.144l-2.581,2.433c-2.582,2.283-5.184,2.283-7.8,0L218.719,64.41
	l-14.101,13.004c-0.131,0.132-0.374,0.319-0.722,0.577c-0.687,2.636-2.475,3.952-5.366,3.952h-3.667
	c-3.681,0-5.524-1.697-5.524-5.097V19.3C189.339,15.903,191.182,14.202,194.863,14.202z M259.399,14.202h3.67
	c3.643,0,5.468,1.701,5.468,5.097v39.489l32.061-29.579c2.616-2.349,5.218-2.349,7.8,0l2.581,2.428c2.616,2.384,2.616,4.778,0,7.193
	l-17.349,16.006l17.349,16.055c2.616,2.38,2.616,4.764,0,7.144l-2.581,2.433c-2.582,2.283-5.184,2.283-7.8,0L283.257,64.41
	l-14.101,13.004c-0.131,0.132-0.374,0.319-0.722,0.577c-0.687,2.636-2.477,3.952-5.364,3.952h-3.67
	c-3.678,0-5.524-1.697-5.524-5.097V19.3C253.875,15.903,255.721,14.202,259.399,14.202z M340.459,41.308
	c-2.034,0-3.768,0.666-5.212,1.999c-1.45,1.336-2.172,2.925-2.172,4.767v13.525c0,1.877,0.722,3.48,2.172,4.816
	c1.444,1.332,3.178,1.999,5.212,1.999c1.513,0,3.025,0,4.545,0c1.513,0,3.047,0,4.594,0c3.685,0,5.524,1.683,5.524,5.049v1.718
	v1.665c0,3.401-1.839,5.097-5.524,5.097c-1.547,0-3.081,0-4.594,0c-1.52,0-3.032,0-4.545,0c-6.093,0-11.29-1.985-15.593-5.955
	c-4.302-3.969-6.454-8.768-6.454-14.389V48.074c0-5.594,2.151-10.378,6.454-14.365c4.303-3.983,9.5-5.978,15.593-5.978h14.663
	c6.058,0,11.235,1.995,15.538,5.978c4.302,3.987,6.454,8.771,6.454,14.365v11.717v3.813V75.18v1.665
	c0,3.401-1.825,5.097-5.468,5.097h-3.664c-3.685,0-5.531-1.697-5.531-5.097V75.18V57.838v-9.764c0-1.842-0.728-3.431-2.193-4.767
	c-1.464-1.333-3.171-1.999-5.135-1.999H340.459z"/>
</svg>
