<?xml version="1.0" encoding="utf-8"?>
<!-- Generator: Adobe Illustrator 22.0.1, SVG Export Plug-In . SVG Version: 6.00 Build 0)  -->
<svg version="1.1" id="Capa_1" xmlns="http://www.w3.org/2000/svg" xmlns:xlink="http://www.w3.org/1999/xlink" x="0px" y="0px"
	 viewBox="-49 141 512 512" style="enable-background:new -49 141 512 512;" xml:space="preserve">
<style type="text/css">
	.st0{fill:#ADBE14;}
	.st1{fill:#4D4D4D;}
</style>
<g>
	<path class="st0" d="M119,349h176c8.8,0,16,7.2,16,16v32c0,8.8-7.2,16-16,16H119c-8.8,0-16-7.2-16-16v-32
		C103,356.2,110.2,349,119,349z"/>
	<path class="st0" d="M119,253h176c8.8,0,16,7.2,16,16v32c0,8.8-7.2,16-16,16H119c-8.8,0-16-7.2-16-16v-32
		C103,260.2,110.2,253,119,253z"/>
	<path class="st0" d="M119,157h176c8.8,0,16,7.2,16,16v32c0,8.8-7.2,16-16,16H119c-8.8,0-16-7.2-16-16v-32
		C103,164.2,110.2,157,119,157z"/>
</g>
<g>
	<rect x="351" y="533" class="st0" width="64" height="16"/>
	<rect x="351" y="565" class="st0" width="64" height="16"/>
	<rect x="351" y="597" class="st0" width="64" height="16"/>
	<rect x="175" y="533" class="st0" width="64" height="16"/>
	<rect x="175" y="565" class="st0" width="64" height="16"/>
	<rect x="175" y="597" class="st0" width="64" height="16"/>
	<rect x="-1" y="533" class="st0" width="64" height="16"/>
	<rect x="-1" y="565" class="st0" width="64" height="16"/>
	<rect x="-1" y="597" class="st0" width="64" height="16"/>
</g>
<g>
	<path class="st1" d="M119,421h176c13.2,0,24-10.8,24-24v-32c0-13.2-10.8-24-24-24v-16c13.2,0,24-10.8,24-24v-32
		c0-13.2-10.8-24-24-24v-16c13.2,0,24-10.8,24-24v-32c0-13.2-10.8-24-24-24H119c-13.2,0-24,10.8-24,24v32c0,13.2,10.8,24,24,24v16
		c-13.2,0-24,10.8-24,24v32c0,13.2,10.8,24,24,24v16c-13.2,0-24,10.8-24,24v32C95,410.2,105.8,421,119,421z M111,205v-32
		c0-4.4,3.6-8,8-8h176c4.4,0,8,3.6,8,8v32c0,4.4-3.6,8-8,8H119C114.6,213,111,209.4,111,205z M135,229h144v16H135V229z M111,301v-32
		c0-4.4,3.6-8,8-8h176c4.4,0,8,3.6,8,8v32c0,4.4-3.6,8-8,8H119C114.6,309,111,305.4,111,301z M135,325h144v16H135V325z M111,365
		c0-4.4,3.6-8,8-8h176c4.4,0,8,3.6,8,8v32c0,4.4-3.6,8-8,8H119c-4.4,0-8-3.6-8-8V365z"/>
	<rect x="127" y="181" class="st1" width="16" height="16"/>
	<rect x="159" y="181" class="st1" width="16" height="16"/>
	<rect x="271" y="277" class="st1" width="16" height="16"/>
	<rect x="239" y="277" class="st1" width="16" height="16"/>
	<rect x="127" y="373" class="st1" width="16" height="16"/>
	<rect x="159" y="373" class="st1" width="16" height="16"/>
	<path class="st1" d="M319,501v144h128V501H319z M431,629h-96V517h96V629z"/>
	<path class="st1" d="M-33,645H95V501H-33V645z M-17,517h96v112h-96V517z"/>
	<path class="st1" d="M143,645h128V501H143V645z M159,517h96v112h-96V517z"/>
	<polygon class="st1" points="31,469 199,469 199,485 215,485 215,469 375,469 375,485 391,485 391,453 215,453 215,437 199,437 
		199,453 15,453 15,485 31,485 	"/>
	<rect x="335" y="181" class="st1" width="16" height="16"/>
	<rect x="367" y="181" class="st1" width="16" height="16"/>
	<rect x="367" y="213" class="st1" width="16" height="16"/>
	<rect x="335" y="277" class="st1" width="16" height="16"/>
	<rect x="367" y="277" class="st1" width="16" height="16"/>
	<rect x="367" y="245" class="st1" width="16" height="16"/>
	<rect x="63" y="373" class="st1" width="16" height="16"/>
	<rect x="31" y="373" class="st1" width="16" height="16"/>
	<rect x="31" y="341" class="st1" width="16" height="16"/>
	<rect x="63" y="277" class="st1" width="16" height="16"/>
	<rect x="31" y="277" class="st1" width="16" height="16"/>
	<rect x="31" y="309" class="st1" width="16" height="16"/>
</g>
</svg>
