<?xml version="1.0" encoding="utf-8"?>
<!-- Generator: Adobe Illustrator 22.0.1, SVG Export Plug-In . SVG Version: 6.00 Build 0)  -->
<svg version="1.1" id="Layer_1" xmlns="http://www.w3.org/2000/svg" xmlns:xlink="http://www.w3.org/1999/xlink" x="0px" y="0px"
	 viewBox="0 0 49.1 49.6" style="enable-background:new 0 0 49.1 49.6;" xml:space="preserve">
<style type="text/css">
	.st0{fill:#FFFFFF;}
</style>
<g>
	<path class="st0" d="M18.2,12.8h-4v-4c0-0.4-0.4-0.8-0.8-0.8c-0.4,0-0.8,0.4-0.8,0.8v4h-4c-0.4,0-0.8,0.4-0.8,0.8
		c0,0.4,0.4,0.8,0.8,0.8h4v4c0,0.4,0.4,0.8,0.8,0.8c0.4,0,0.8-0.4,0.8-0.8v-4h4c0.4,0,0.8-0.4,0.8-0.8C19,13.2,18.6,12.8,18.2,12.8
		L18.2,12.8z M18.2,12.8"/>
	<path class="st0" d="M40.6,12.8H31c-0.4,0-0.8,0.4-0.8,0.8c0,0.4,0.4,0.8,0.8,0.8h9.6c0.4,0,0.8-0.4,0.8-0.8
		C41.4,13.2,41,12.8,40.6,12.8L40.6,12.8z M40.6,12.8"/>
	<path class="st0" d="M25.4,1.6h-24V48h46.4V1.6H25.4z M3,3.2h20.8V24H3V3.2z M3,46.4V25.6h20.8v20.8H3z M46.2,46.4H25.4V25.6h20.8
		V46.4z M25.4,24V3.2h20.8V24H25.4z M25.4,24"/>
	<path class="st0" d="M31,39.2h9.6c0.4,0,0.8-0.4,0.8-0.8c0-0.4-0.4-0.8-0.8-0.8H31c-0.4,0-0.8,0.4-0.8,0.8
		C30.2,38.8,30.5,39.2,31,39.2L31,39.2z M31,39.2"/>
	<path class="st0" d="M31,34.4h9.6c0.4,0,0.8-0.4,0.8-0.8s-0.4-0.8-0.8-0.8H31c-0.4,0-0.8,0.4-0.8,0.8S30.5,34.4,31,34.4L31,34.4z
		 M31,34.4"/>
	<path class="st0" d="M17.9,31.4c-0.3-0.3-0.8-0.3-1.1,0l-3.4,3.4l-3.4-3.4c-0.3-0.3-0.8-0.3-1.1,0c-0.3,0.3-0.3,0.8,0,1.1l3.4,3.4
		l-3.4,3.4c-0.3,0.3-0.3,0.8,0,1.1c0.2,0.2,0.4,0.2,0.6,0.2s0.4-0.1,0.6-0.2l3.4-3.4l3.4,3.4c0.2,0.2,0.4,0.2,0.6,0.2
		s0.4-0.1,0.6-0.2c0.3-0.3,0.3-0.8,0-1.1L14.5,36l3.4-3.4C18.2,32.3,18.2,31.8,17.9,31.4L17.9,31.4z M17.9,31.4"/>
</g>
</svg>
