<?xml version="1.0" encoding="utf-8"?>
<!-- Generator: Adobe Illustrator 22.0.1, SVG Export Plug-In . SVG Version: 6.00 Build 0)  -->
<svg version="1.1" id="Capa_1" xmlns="http://www.w3.org/2000/svg" xmlns:xlink="http://www.w3.org/1999/xlink" x="0px" y="0px"
	 viewBox="-49 141 512 512" style="enable-background:new -49 141 512 512;" xml:space="preserve">
<style type="text/css">
	.st0{fill:#ADBE14;}
	.st1{fill:#4D4D4D;}
</style>
<g>
	<polygon class="st0" points="94.8,638.9 79.2,635.1 94.4,574.5 80.3,553.4 93.7,544.6 111.6,571.5 	"/>
	<polygon class="st0" points="143.2,638.9 126.4,571.5 144.3,544.6 157.7,553.4 143.6,574.5 158.8,635.1 	"/>
</g>
<g>
	<path class="st0" d="M199,389v-40c0-13.3-10.7-24-24-24l0,0l0,0c-9.8-19.6-29.8-32-51.8-32H119c-44.2,0-80,35.8-80,80v16h45.5
		c17,0,33.3-6.7,45.3-18.7L143,357l4.8,6.4C159.9,379.5,178.9,389,199,389L199,389z"/>
	<path class="st0" d="M111,189h320c8.8,0,16-7.2,16-16l0,0c0-8.8-7.2-16-16-16H111c-8.8,0-16,7.2-16,16l0,0
		C95,181.8,102.2,189,111,189z"/>
</g>
<g>
	<path class="st1" d="M41,443.7c1.9,6.1,5.1,11.7,9.7,16.3L84.7,494c4.5,4.5,10.6,7,17,7h34.7c6.4,0,12.4-2.5,17-7l33.9-33.9
		c4.4-4.4,7.6-9.8,9.5-15.6c14.9-2.7,26.2-15.8,26.2-31.4c0-11.8-6.5-22-16-27.6V349c0-16-11.7-29.2-27-31.6
		c-11.8-20.1-33.2-32.4-56.7-32.4H119c-48.5,0-88,39.5-88,88v14.2c-8.8,5.5-14.7,15.1-14.7,26.2C16.3,428.3,26.9,440.8,41,443.7z
		 M32.3,413.4c0-5.2,2.7-9.7,6.7-12.4v24.8C35,423.1,32.3,418.6,32.3,413.4z M176,448.7L142,482.7c-1.5,1.5-3.5,2.3-5.7,2.3h-34.7
		c-2.1,0-4.2-0.8-5.7-2.3L62,448.7c-4.5-4.5-7-10.6-7-17V397h29.5c19.2,0,37.3-7.5,50.9-21.1l6.7-6.7c10.2,13.2,24.8,22.3,40.9,26
		v36.6C183,438.1,180.4,444.2,176,448.7z M199,426.8v-27.6c4.8,2.8,8,7.9,8,13.8S203.8,424,199,426.8z M119,301h4.2
		c19,0,36.1,10.6,44.6,27.6l2.2,4.4h4.9c8.8,0,16,7.2,16,16v31.4c-14.5-2.1-27.9-9.9-36.8-21.8l-10.3-13.8l-19.8,19.8
		C113.5,375.2,99.4,381,84.5,381H47v-8C47,333.3,79.3,301,119,301z"/>
	<path class="st1" d="M217.6,522.5L175,510.9V501h-16v15.2l-5.4,26.8l-24-18h-21.3l-24,18L79,516.2V501H63v9.9l-42.6,11.6
		c-27,7.4-47.5,30-52.1,57.6L-42.4,645h322.9l-10.8-64.9C265,552.5,244.6,529.9,217.6,522.5z M221.9,629l-7-49.1l-15.8,2.3l6.7,46.9
		H32.2l6.7-46.9l-15.8-2.3l-7,49.1h-39.6l7.7-46.2c3.6-21.5,19.5-39.1,40.5-44.8l40.2-11l8.8,44l40-30h10.7l40,30l8.8-44l40.2,11
		c21,5.7,36.9,23.3,40.5,44.8l7.7,46.2H221.9z"/>
	<path class="st1" d="M431,149H111c-13.2,0-24,10.8-24,24s10.8,24,24,24h320c13.2,0,24-10.8,24-24S444.2,149,431,149z M431,181H111
		c-4.4,0-8-3.6-8-8s3.6-8,8-8h320c4.4,0,8,3.6,8,8S435.4,181,431,181z"/>
	<polygon class="st1" points="423,445 215,445 215,461 439,461 439,213 423,213 	"/>
	<rect x="103" y="213" class="st1" width="16" height="56"/>
	
		<rect x="187.4" y="289" transform="matrix(0.8321 -0.5547 0.5547 0.8321 -129.6245 165.8081)" class="st1" width="43.3" height="16"/>
	
		<rect x="268.7" y="271.3" transform="matrix(0.5735 -0.8192 0.8192 0.5735 -130.522 356.0741)" class="st1" width="16" height="64.2"/>
	
		<rect x="318.8" y="282" transform="matrix(0.6247 -0.7809 0.7809 0.6247 -93.8205 384.811)" class="st1" width="69.2" height="16"/>
	<rect x="295" y="413" class="st1" width="112" height="16"/>
	<rect x="295" y="381" class="st1" width="80" height="16"/>
	<rect x="391" y="381" class="st1" width="16" height="16"/>
</g>
<g>
	<path class="st0" d="M383,277c-13.2,0-24-10.8-24-24s10.8-24,24-24s24,10.8,24,24S396.2,277,383,277z M383,245c-4.4,0-8,3.6-8,8
		s3.6,8,8,8s8-3.6,8-8S387.4,245,383,245z"/>
	<path class="st0" d="M319,357c-13.2,0-24-10.8-24-24s10.8-24,24-24s24,10.8,24,24S332.2,357,319,357z M319,325c-4.4,0-8,3.6-8,8
		s3.6,8,8,8s8-3.6,8-8S323.4,325,319,325z"/>
	<path class="st0" d="M239,301c-13.2,0-24-10.8-24-24s10.8-24,24-24s24,10.8,24,24S252.2,301,239,301z M239,269c-4.4,0-8,3.6-8,8
		s3.6,8,8,8s8-3.6,8-8S243.4,269,239,269z"/>
</g>
</svg>
