<?xml version="1.0" encoding="utf-8"?>
<!-- Generator: Adobe Illustrator 22.0.1, SVG Export Plug-In . SVG Version: 6.00 Build 0)  -->
<svg version="1.1" id="Layer_1" xmlns="http://www.w3.org/2000/svg" xmlns:xlink="http://www.w3.org/1999/xlink" x="0px" y="0px"
	 viewBox="0 0 212 237.3" style="enable-background:new 0 0 212 237.3;" xml:space="preserve">
<style type="text/css">
	.st0{fill:#ADBE14;}
	.st1{fill:#4D4D4D;}
</style>
<g>
	<path class="st0" d="M106,233c-8.3,0-15-6.7-15-15c0-8.3,6.7-15,15-15c8.3,0,15,6.7,15,15C121,226.3,114.3,233,106,233L106,233z
		 M106,233"/>
	<path class="st0" d="M49.8,98v3.8h30c0-8.3,6.7-15,15-15h22.5c8.3,0,15,6.7,15,15V113c0,8.3-6.7,15-15,15H106c-8.3,0-15,6.7-15,15
		v30c0,8.3,6.7,15,15,15c8.3,0,15-6.7,15-15v-15c22.8,0,41.3-18.5,41.3-41.3V98c0-22.8-18.5-41.3-41.3-41.3H91
		C68.2,56.8,49.8,75.2,49.8,98L49.8,98z M49.8,98"/>
	<path class="st1" d="M125.4,212.4l-1.4-7.4c2.4-0.4,4.7-1,7-1.6l1.9,7.2C130.5,211.4,128,212,125.4,212.4L125.4,212.4z
		 M125.4,212.4"/>
	<path class="st1" d="M147.7,205.6l-3-6.9c4.4-1.9,8.7-4.1,12.7-6.7l4,6.4C157,201.2,152.4,203.6,147.7,205.6L147.7,205.6z
		 M64,205.5c-4.7-2.1-9.3-4.5-13.7-7.2l4-6.4c4.1,2.6,8.3,4.8,12.7,6.7L64,205.5z M173.9,189.3l-4.9-5.7c3.7-3.1,7.1-6.5,10.3-10.1
		l5.6,4.9C181.6,182.3,177.9,186,173.9,189.3L173.9,189.3z M37.8,189.1c-3.9-3.3-7.6-7-11-10.9l5.7-4.9c3.2,3.6,6.6,7,10.2,10.1
		L37.8,189.1z M194.3,166.1L188,162c2.6-4,4.9-8.3,6.9-12.6l6.8,3.1C199.6,157.2,197.1,161.8,194.3,166.1L194.3,166.1z M17.5,165.8
		c-2.8-4.3-5.3-8.9-7.4-13.6l6.8-3.1c2,4.4,4.3,8.6,6.8,12.7L17.5,165.8z M207,137.9l-7.2-2c1.3-4.6,2.3-9.3,2.9-14.1l7.4,1
		C209.5,127.9,208.4,133,207,137.9L207,137.9z M4.9,137.6c-1.4-5-2.4-10.1-3.1-15.2l7.4-0.9c0.6,4.8,1.6,9.5,2.8,14.1L4.9,137.6z
		 M203.5,107.4c-0.1-4.8-0.5-9.6-1.3-14.3l7.4-1.2c0.8,5.1,1.3,10.3,1.4,15.4L203.5,107.4z M8.5,107.1L1,107
		c0.1-5.2,0.6-10.4,1.5-15.4l7.4,1.3C9.1,97.5,8.6,102.3,8.5,107.1L8.5,107.1z M198.8,79.1c-1.5-4.5-3.3-9-5.4-13.3l6.7-3.3
		c2.3,4.6,4.3,9.4,5.9,14.3L198.8,79.1z M13.3,78.8l-7.1-2.3c1.6-4.9,3.6-9.7,5.9-14.3l6.7,3.4C16.7,69.8,14.8,74.3,13.3,78.8
		L13.3,78.8z M186,53.4c-2.7-3.9-5.8-7.7-9.1-11.2l5.4-5.1c3.5,3.8,6.8,7.8,9.8,12L186,53.4z M26.2,53.2l-6.1-4.3
		c3-4.2,6.3-8.2,9.8-12l5.4,5.2C32,45.6,29,49.3,26.2,53.2L26.2,53.2z M166.2,32.6c-3.8-2.9-7.8-5.7-11.9-8L158,18
		c4.5,2.6,8.8,5.5,12.8,8.7L166.2,32.6z M46,32.4l-4.6-5.9c4.1-3.2,8.4-6.1,12.9-8.6l3.7,6.5C53.8,26.8,49.8,29.5,46,32.4L46,32.4z
		 M141.3,18.4c-4.5-1.7-9.1-3.1-13.8-4.2l1.7-7.3c5,1.1,10,2.7,14.8,4.5L141.3,18.4z M71,18.2l-2.7-7c4.8-1.9,9.8-3.4,14.8-4.5
		l1.6,7.3C80.1,15.1,75.4,16.5,71,18.2L71,18.2z M113.4,12c-4.8-0.4-9.6-0.4-14.4,0l-0.5-7.5c5.1-0.4,10.4-0.4,15.5,0L113.4,12z
		 M113.4,12"/>
	<path class="st1" d="M86.6,212.4c-2.5-0.5-5.1-1.1-7.6-1.7l1.9-7.2c2.3,0.6,4.7,1.1,7,1.6L86.6,212.4z M86.6,212.4"/>
</g>
</svg>
