<?xml version="1.0" encoding="utf-8"?>
<!-- Generator: Adobe Illustrator 22.0.1, SVG Export Plug-In . SVG Version: 6.00 Build 0)  -->
<svg version="1.1" id="Layer_1" xmlns="http://www.w3.org/2000/svg" xmlns:xlink="http://www.w3.org/1999/xlink" x="0px" y="0px"
	 viewBox="0 0 182.4 133.3" style="enable-background:new 0 0 182.4 133.3;" xml:space="preserve">
<style type="text/css">
	.st0{fill:#FFFFFF;}
</style>
<path class="st0" d="M165,4.1H17.4c-7.8,0-14.2,6.4-14.2,14.2V115c0,7.8,6.4,14.2,14.2,14.2H165c7.8,0,14.2-6.3,14.2-14.2V18.3
	C179.2,10.5,172.8,4.1,165,4.1z M165,9.8c1.5,0,2.9,0.4,4.1,1L97.9,72.9c-3.6,3.2-9.8,3.2-13.4,0L13.4,10.8c1.2-0.7,2.6-1,4-1H165z
	 M173.5,115c0,4.7-3.8,8.5-8.5,8.5H17.4c-4.7,0-8.5-3.8-8.5-8.5V18.3c0-1.2,0.2-2.3,0.7-3.3l57.7,50.3L34.7,95.8
	c-1.1,1.1-1.2,2.9-0.1,4c0.6,0.6,1.3,0.9,2.1,0.9c0.7,0,1.4-0.2,1.9-0.8l32.7-30.6c0.1-0.1,0.1-0.2,0.2-0.2l9.3,8.1
	c2.9,2.5,6.6,3.7,10.4,3.7c3.8,0,7.5-1.2,10.4-3.8l9.3-8.1c0.1,0.1,0.1,0.2,0.2,0.3l32.6,30.6c0.6,0.5,1.2,0.8,1.9,0.8
	c0.8,0,1.5-0.3,2.1-0.9c1.1-1.1,1-2.9-0.1-4l-32.5-30.5L172.9,15c0.4,1,0.6,2.1,0.6,3.3V115z"/>
</svg>
